<svg width="24" height="24" viewBox="0 0 24 24" fill="none" xmlns="http://www.w3.org/2000/svg">
    <path
        d="M3 7.5C3 6.30653 3.47411 5.16193 4.31802 4.31802C5.16193 3.47411 6.30653 3 7.5 3H16.5C17.6935 3 18.8381 3.47411 19.682 4.31802C20.5259 5.16193 21 6.30653 21 7.5V16.5C21 17.6935 20.5259 18.8381 19.682 19.682C18.8381 20.5259 17.6935 21 16.5 21H7.5C6.30653 21 5.16193 20.5259 4.31802 19.682C3.47411 18.8381 3 17.6935 3 16.5V7.5Z"
        stroke="white" stroke-width="2" stroke-linecap="round" stroke-linejoin="round" />
    <path
        d="M8.625 7.5C8.625 8.39511 8.98058 9.25355 9.61351 9.88649C10.2464 10.5194 11.1049 10.875 12 10.875C12.8951 10.875 13.7536 10.5194 14.3865 9.88649C15.0194 9.25355 15.375 8.39511 15.375 7.5"
        stroke="white" stroke-width="2" stroke-linecap="round" stroke-linejoin="round" />
</svg>