<svg width="24" height="24" viewBox="0 0 24 24" fill="none" xmlns="http://www.w3.org/2000/svg">
    <path
        d="M9.07535 14.6699L14.676 4.57573C14.753 4.43672 14.83 4.29953 14.8997 4.15594C14.9629 4.02607 15.0161 3.89529 15.0509 3.75353C15.1242 3.45538 15.1041 3.14442 14.9904 2.85998C14.88 2.57976 14.6803 2.34355 14.4221 2.18777C14.1687 2.0347 13.8706 1.97243 13.577 2.01126C13.2836 2.05058 13.0151 2.18868 12.8033 2.40452C12.7025 2.50513 12.62 2.61945 12.5439 2.74109C12.4596 2.87462 12.3835 3.01363 12.3065 3.15265L11.9527 3.79011L11.5979 3.15174C11.5209 3.01363 11.4449 2.87462 11.3605 2.74109C11.2862 2.61977 11.1993 2.50664 11.1011 2.40361C10.8945 2.19014 10.6221 2.05199 10.3275 2.01126C10.0341 1.97265 9.73637 2.03491 9.48325 2.18777C9.22501 2.34355 9.02531 2.57976 8.91494 2.85998C8.80167 3.1442 8.78051 3.45669 8.85444 3.75353C8.88927 3.89529 8.94244 4.02607 9.00477 4.15594C9.07443 4.29953 9.15143 4.43672 9.22843 4.57573L10.3724 6.63719L5.9157 14.669H2.86146C2.70746 14.669 2.55347 14.669 2.40039 14.6782C2.26106 14.6864 2.1254 14.7038 1.98974 14.7431C1.70558 14.8254 1.45625 14.9992 1.27659 15.2443C1.09698 15.491 1.00016 15.788 1 16.0929C0.999836 16.3978 1.09633 16.6949 1.27567 16.9417C1.45625 17.1869 1.70466 17.3597 1.98974 17.4429C2.1254 17.4823 2.26106 17.4996 2.40039 17.5079C2.55347 17.517 2.70746 17.517 2.86146 17.517H14.8667C14.9031 17.437 14.9338 17.3545 14.9583 17.2701C15.3387 15.975 14.3937 14.669 13.093 14.669L9.07535 14.6699ZM3.85418 17.9825L3.1282 19.3544C3.05304 19.4971 2.97695 19.6379 2.90912 19.7852C2.84653 19.9177 2.7974 20.0562 2.76246 20.1986C2.68891 20.5032 2.70936 20.823 2.82113 21.1159C2.93204 21.4067 3.12728 21.6491 3.37753 21.8064C3.62777 21.9637 3.91743 22.0277 4.20342 21.9866C4.49124 21.9463 4.7534 21.8055 4.96056 21.5841C5.05956 21.479 5.14022 21.3628 5.21538 21.2384C5.29788 21.1013 5.37213 20.9586 5.44729 20.8159L6.50051 18.8258C6.41801 18.6886 5.63245 17.4814 3.85418 17.9825ZM22.7241 15.2333C22.5473 14.9945 22.2962 14.8209 22.01 14.7394C21.8761 14.7023 21.7383 14.6805 21.5994 14.6745C21.4454 14.6654 21.2923 14.6654 21.1383 14.6654H18.0942L14.0701 7.51793C13.5419 8.07085 13.1975 8.77283 13.0838 9.52818C12.9361 10.4729 13.1124 11.4397 13.5843 12.2719L18.4186 20.8625C18.4956 20.9997 18.5717 21.1369 18.656 21.2686C18.733 21.3875 18.8155 21.5 18.9155 21.6015C19.1272 21.8137 19.3958 21.9491 19.69 21.9884C19.9843 22.0277 20.2794 21.9664 20.5352 21.8146C20.7924 21.6611 20.9922 21.428 21.1044 21.1506C21.219 20.8699 21.2382 20.5635 21.1649 20.269C21.1286 20.1317 21.0779 19.9987 21.0136 19.8721C20.9449 19.7303 20.867 19.5949 20.79 19.4578L19.6753 17.4768H21.1383C21.2923 17.4768 21.4454 17.4768 21.5994 17.4685C21.7387 17.4603 21.8744 17.4429 22.01 17.4045C22.2966 17.323 22.5481 17.149 22.725 16.9097C22.9042 16.667 23.0005 16.3734 23 16.072C23.0005 15.7706 22.9042 15.4769 22.725 15.2342"
        fill="white" />
</svg>