<svg width="24" height="24" viewBox="0 0 24 24" fill="none" xmlns="http://www.w3.org/2000/svg">
    <path fill-rule="evenodd" clip-rule="evenodd"
        d="M12.4444 17H13.9444C17.78 17 20.8889 13.8911 20.8889 10.0556C20.8889 6.22 17.78 3.11111 13.9444 3.11111H10.0556C6.22 3.11111 3.11111 6.22 3.11111 10.0556C3.11111 14.5333 5.66444 17.2111 8.35 18.8256C9.69778 19.6356 11.0556 20.1589 12.0817 20.4794C12.208 20.5191 12.3289 20.5556 12.4444 20.5889V17ZM13.5556 22C13.5556 22 13.1311 21.9283 12.4444 21.7428C9.55 20.9583 2 18.1389 2 10.0556C2 5.60667 5.60667 2 10.0556 2H13.9444C18.3933 2 22 5.60667 22 10.0556C22 14.5044 18.3933 18.1111 13.9444 18.1111H13.5556V22Z"
        fill="white" />
    <path fill-rule="evenodd" clip-rule="evenodd"
        d="M14.0506 5.60109C14.6228 5.98109 15.0539 6.5972 15.0539 7.42331C15.0539 8.29998 14.7006 8.94442 14.1278 9.33886C13.9018 9.49216 13.6522 9.60739 13.3889 9.67998V10.5311C13.3889 10.7521 13.3011 10.9641 13.1448 11.1203C12.9885 11.2766 12.7766 11.3644 12.5556 11.3644C12.3346 11.3644 12.1226 11.2766 11.9663 11.1203C11.81 10.9641 11.7222 10.7521 11.7222 10.5311V8.9772C11.7222 8.76577 11.8025 8.56223 11.9469 8.4078C12.0913 8.25338 12.2891 8.15963 12.5 8.14553C12.8078 8.12498 13.0411 8.06386 13.1817 7.96664C13.2386 7.92886 13.2846 7.87674 13.315 7.81553C13.3483 7.74886 13.3872 7.62998 13.3872 7.42275C13.3872 7.24942 13.3195 7.11609 13.1278 6.98831C12.91 6.84386 12.56 6.7372 12.1395 6.72386C11.7239 6.71053 11.32 6.79164 11.0228 6.93553C10.725 7.07998 10.6156 7.2422 10.585 7.36164C10.5578 7.46765 10.51 7.56726 10.4443 7.65478C10.3786 7.7423 10.2963 7.81603 10.2021 7.87174C10.1079 7.92746 10.0036 7.96407 9.89525 7.9795C9.7869 7.99492 9.67658 7.98886 9.57057 7.96164C9.46457 7.93443 9.36496 7.8866 9.27743 7.8209C9.18991 7.75519 9.11619 7.67288 9.06047 7.57868C9.00476 7.48448 8.96814 7.38023 8.95272 7.27188C8.93729 7.16353 8.94336 7.0532 8.97057 6.9472C9.16224 6.2022 9.71946 5.71553 10.2961 5.43609C10.8739 5.15553 11.5533 5.0372 12.1922 5.05775C12.8272 5.07775 13.505 5.23775 14.0506 5.60109Z"
        fill="white" />
    <path
        d="M13.6667 13.6667C13.6667 13.9613 13.5496 14.244 13.3412 14.4523C13.1329 14.6607 12.8503 14.7778 12.5556 14.7778C12.2609 14.7778 11.9783 14.6607 11.7699 14.4523C11.5615 14.244 11.4445 13.9613 11.4445 13.6667C11.4445 13.372 11.5615 13.0894 11.7699 12.881C11.9783 12.6726 12.2609 12.5555 12.5556 12.5555C12.8503 12.5555 13.1329 12.6726 13.3412 12.881C13.5496 13.0894 13.6667 13.372 13.6667 13.6667Z"
        fill="white" />
</svg>