<svg width="24" height="24" viewBox="0 0 24 24" fill="none" xmlns="http://www.w3.org/2000/svg">
    <g clip-path="url(#clip0_929_48)">
        <path
            d="M14.9728 3.43196C13.017 2.97749 10.983 2.97749 9.0272 3.43196C7.8976 2.73916 7.0352 2.42076 6.408 2.28636C6.14031 2.22594 5.8664 2.19747 5.592 2.20156C5.46714 2.20494 5.34288 2.21994 5.2208 2.24636L5.2048 2.24956L5.1984 2.25276H5.1936L5.4128 3.02236L5.1936 2.25436C5.08119 2.28612 4.97711 2.34212 4.88865 2.41841C4.8002 2.4947 4.72953 2.58943 4.6816 2.69596C4.20956 3.75309 4.11963 4.94142 4.4272 6.05756C3.63062 7.02293 3.19652 8.23637 3.2 9.48796C3.2 11.9728 3.9328 13.6432 5.1824 14.7168C6.0576 15.4688 7.12 15.8688 8.1856 16.0976C8.01791 16.59 7.9547 17.1121 8 17.6304V18.5872C7.3488 18.7232 6.8976 18.68 6.576 18.5744C6.1744 18.4416 5.8656 18.1744 5.5696 17.7904C5.41487 17.5834 5.27068 17.3687 5.1376 17.1472L5.0464 16.9984C4.93124 16.8069 4.81174 16.618 4.688 16.432C4.384 15.9824 3.9328 15.4192 3.2032 15.2272L2.4288 15.024L2.0224 16.5728L2.7968 16.776C2.9248 16.808 3.0912 16.928 3.3648 17.3296C3.47011 17.4881 3.57147 17.6492 3.6688 17.8128L3.7776 17.9888C3.928 18.232 4.1008 18.5008 4.3008 18.7632C4.7056 19.2912 5.2576 19.824 6.0768 20.0944C6.6368 20.28 7.2736 20.3248 8 20.2128V23.2C8 23.4121 8.08429 23.6156 8.23432 23.7656C8.38434 23.9157 8.58783 24 8.8 24H15.2C15.4122 24 15.6157 23.9157 15.7657 23.7656C15.9157 23.6156 16 23.4121 16 23.2V17.5008C16 16.9952 15.9776 16.5328 15.8352 16.1024C16.896 15.8784 17.9504 15.4784 18.8208 14.7264C20.0688 13.6448 20.8 11.9584 20.8 9.45916V9.45756C20.796 8.21621 20.3617 7.01466 19.5712 6.05756C19.8784 4.94192 19.7885 3.75422 19.3168 2.69756C19.2692 2.59091 19.1989 2.49597 19.1107 2.4194C19.0225 2.34283 18.9187 2.2865 18.8064 2.25436L18.5872 3.02236C18.8064 2.25436 18.8048 2.25436 18.8032 2.25436L18.8 2.25276L18.7936 2.24956L18.7792 2.24636C18.7397 2.23608 18.6996 2.22807 18.6592 2.22236C18.5755 2.21013 18.491 2.20318 18.4064 2.20156C18.132 2.19751 17.8581 2.22597 17.5904 2.28636C16.9648 2.42076 16.1024 2.73916 14.9728 3.43196Z"
            fill="white" />
    </g>
    <defs>
        <clipPath id="clip0_929_48">
            <rect width="24" height="24" fill="white" />
        </clipPath>
    </defs>
</svg>