<svg width="24" height="24" viewBox="0 0 24 24" fill="none" xmlns="http://www.w3.org/2000/svg">
    <path
        d="M22 6.18558V18.5453C22 19.3486 21.39 19.9991 20.6367 19.9991H17.4542V11.7599L12 16.123L6.54583 11.7599V20H3.36333C3.18423 20 3.00688 19.9624 2.84142 19.8893C2.67595 19.8161 2.52562 19.709 2.39902 19.5739C2.27241 19.4388 2.172 19.2784 2.10354 19.1019C2.03507 18.9255 1.99989 18.7363 2 18.5453V6.18558C2 4.38791 3.92417 3.36156 5.2725 4.44034L6.54583 5.45958L12 9.82091L17.4542 5.4578L18.7275 4.44034C20.075 3.36245 22 4.38791 22 6.18558Z"
        fill="white" />
</svg>