<svg width="24" height="24" viewBox="0 0 24 24" fill="none" xmlns="http://www.w3.org/2000/svg">
    <path
        d="M8.99999 22.0001L8.74899 18.4911C8.71667 18.0444 8.77674 17.5959 8.92545 17.1735C9.07416 16.7512 9.30832 16.364 9.61332 16.0361C9.91832 15.7082 10.2876 15.4467 10.6982 15.2679C11.1087 15.0891 11.5517 14.9968 11.9995 14.9968C12.4473 14.9968 12.8903 15.0891 13.3008 15.2679C13.7114 15.4467 14.0807 15.7082 14.3857 16.0361C14.6907 16.364 14.9248 16.7512 15.0735 17.1735C15.2222 17.5959 15.2823 18.0444 15.25 18.4911L15 22.0001"
        stroke="white" stroke-width="1.5" stroke-linecap="round" stroke-linejoin="round" />
    <path
        d="M2.352 13.214C1.998 10.916 1.822 9.768 2.256 8.749C2.69 7.73 3.654 7.034 5.581 5.641L7.021 4.6C9.418 2.867 10.617 2 12.001 2C13.383 2 14.581 2.867 16.979 4.6L18.419 5.641C20.346 7.034 21.309 7.731 21.744 8.749C22.178 9.768 22.002 10.916 21.649 13.213L21.348 15.173C20.848 18.429 20.597 20.057 19.429 21.029C18.261 22.001 16.554 22 13.14 22H10.86C7.445 22 5.738 22 4.57 21.029C3.402 20.057 3.152 18.429 2.652 15.172L2.352 13.214Z"
        stroke="white" stroke-width="1.5" stroke-linecap="round" stroke-linejoin="round" />
</svg>