<svg width="24" height="24" viewBox="0 0 24 24" fill="none" xmlns="http://www.w3.org/2000/svg">
    <path
        d="M15.5 6.5C15.5 6.95963 15.4095 7.41475 15.2336 7.83939C15.0577 8.26403 14.7999 8.64987 14.4749 8.97487C14.1499 9.29988 13.764 9.55769 13.3394 9.73358C12.9148 9.90947 12.4596 10 12 10C11.5404 10 11.0852 9.90947 10.6606 9.73358C10.236 9.55769 9.85013 9.29988 9.52513 8.97487C9.20012 8.64987 8.94231 8.26403 8.76642 7.83939C8.59053 7.41475 8.5 6.95963 8.5 6.5C8.5 5.57174 8.86875 4.6815 9.52513 4.02513C10.1815 3.36875 11.0717 3 12 3C12.9283 3 13.8185 3.36875 14.4749 4.02513C15.1313 4.6815 15.5 5.57174 15.5 6.5ZM22 17.5C22 18.4283 21.6313 19.3185 20.9749 19.9749C20.3185 20.6313 19.4283 21 18.5 21C17.5717 21 16.6815 20.6313 16.0251 19.9749C15.3687 19.3185 15 18.4283 15 17.5C15 16.5717 15.3687 15.6815 16.0251 15.0251C16.6815 14.3687 17.5717 14 18.5 14C19.4283 14 20.3185 14.3687 20.9749 15.0251C21.6313 15.6815 22 16.5717 22 17.5ZM9 17.5C9 17.9596 8.90947 18.4148 8.73358 18.8394C8.55769 19.264 8.29988 19.6499 7.97487 19.9749C7.64987 20.2999 7.26403 20.5577 6.83939 20.7336C6.41475 20.9095 5.95963 21 5.5 21C5.04037 21 4.58525 20.9095 4.16061 20.7336C3.73597 20.5577 3.35013 20.2999 3.02513 19.9749C2.70012 19.6499 2.44231 19.264 2.26642 18.8394C2.09053 18.4148 2 17.9596 2 17.5C2 16.5717 2.36875 15.6815 3.02513 15.0251C3.6815 14.3687 4.57174 14 5.5 14C6.42826 14 7.3185 14.3687 7.97487 15.0251C8.63125 15.6815 9 16.5717 9 17.5Z"
        stroke="white" stroke-width="1.5" stroke-linecap="round" stroke-linejoin="round" />
</svg>