<svg width="24" height="24" viewBox="0 0 24 24" fill="none" xmlns="http://www.w3.org/2000/svg">
    <path
        d="M3.637 3.43396L12.377 12.005L3.702 20.655C3.56043 20.4699 3.45029 20.2628 3.376 20.042C3.33699 19.7918 3.33699 19.5371 3.376 19.287V4.56696C3.35 4.17196 3.441 3.77696 3.636 3.43396M16.142 8.26696L13.289 11.093L4.653 2.59996C4.933 2.50296 5.233 2.47596 5.526 2.52196C5.986 2.64796 6.425 2.84196 6.828 3.09496L14.644 7.41996C15.152 7.69296 15.647 7.97996 16.142 8.26696ZM13.29 12.93L16.129 15.718L14.071 16.864L7.792 20.354C7.272 20.641 6.75 20.915 6.242 21.228C6.02468 21.3634 5.78093 21.4509 5.52707 21.4845C5.27321 21.5181 5.01509 21.4972 4.77 21.423L13.29 12.93ZM20.65 12.005C20.6578 12.3547 20.5697 12.7 20.3952 13.0032C20.2207 13.3064 19.9664 13.556 19.66 13.725L17.314 15.027L14.227 12.005L17.327 8.93096C18.122 9.37396 18.904 9.81696 19.685 10.234C19.9966 10.4079 20.2526 10.6665 20.4232 10.98C20.5938 11.2934 20.6731 11.6488 20.65 12.005Z"
        fill="white" />
</svg>