<svg width="24" height="24" viewBox="0 0 24 24" fill="none" xmlns="http://www.w3.org/2000/svg">
    <path
        d="M12 1C5.93477 1 1 5.93477 1 12C1 18.0652 5.93477 23 12 23C18.0652 23 23 18.0652 23 12C23 5.93477 18.0652 1 12 1ZM12 2.69231C17.1319 2.69231 21.3077 6.86808 21.3077 12C21.3077 17.1319 17.1319 21.3077 12 21.3077C6.86808 21.3077 2.69231 17.1319 2.69231 12C2.69231 6.86808 6.86808 2.69231 12 2.69231ZM9.46154 7.76923V17.0769H11.1538V13.6923H13.2692C14.9032 13.6923 16.2308 12.3647 16.2308 10.7308C16.2308 9.09685 14.9032 7.76923 13.2692 7.76923H9.46154ZM11.1538 9.46154H13.2692C13.969 9.46154 14.5385 10.031 14.5385 10.7308C14.5385 11.4305 13.969 12 13.2692 12H11.1538V9.46154Z"
        fill="white" />
</svg>