<svg width="24" height="24" viewBox="0 0 24 24" fill="none" xmlns="http://www.w3.org/2000/svg">
    <g clip-path="url(#clip0_1046_8)">
        <path
            d="M12 0C5.38331 0 0 5.38312 0 12.0002C0 18.6171 5.38331 24 12 24C18.6167 24 24 18.6169 24 12.0002C24 5.3835 18.6167 0 12 0ZM8.15756 5.86744C8.3685 5.86556 8.58656 5.87363 8.82506 5.87363V7.18425C8.69175 7.19363 8.57606 7.21181 8.45625 7.21181C7.65787 7.18388 7.61625 7.45612 7.55625 8.12044C7.51912 8.53106 7.56994 8.95575 7.54238 9.37088C7.51013 9.78638 7.45913 10.1972 7.37625 10.6076C7.26094 11.1938 6.89625 11.637 6.39337 12.006C7.37194 12.6427 7.48237 13.6303 7.54688 14.6318C7.57913 15.1718 7.56544 15.7161 7.62075 16.2514C7.66219 16.6665 7.824 16.7726 8.25338 16.7865C8.42869 16.7908 8.60812 16.7865 8.81156 16.7865V18.069C7.54256 18.2859 6.49519 17.9259 6.23644 16.8508C6.15148 16.4559 6.09905 16.0547 6.07969 15.6512C6.05212 15.222 6.09769 14.7926 6.06562 14.3636C5.97337 13.1869 5.82113 12.7901 4.69537 12.7346V11.2721C4.77599 11.2538 4.85755 11.2399 4.93969 11.2305C5.55806 11.1981 5.82094 11.0092 5.95481 10.4001C6.0195 10.0588 6.05681 9.71269 6.0705 9.36188C6.11681 8.69306 6.09825 8.00981 6.21356 7.34512C6.37481 6.39 6.96544 5.92875 7.94831 5.87325C8.01756 5.87 8.08725 5.868 8.15738 5.86725L8.15756 5.86744ZM15.8372 5.8755C17.0012 5.86744 17.7692 6.42525 17.8509 7.66312C17.8926 8.2815 17.8877 8.90475 17.9248 9.52313C17.9434 9.85556 17.9938 10.1923 18.0771 10.515C18.2106 11.0228 18.4787 11.2031 19.0138 11.226H19.0142C19.1016 11.2309 19.1848 11.2442 19.3048 11.2581V12.7213C19.2405 12.7438 19.1739 12.7592 19.1063 12.7673C18.3909 12.8134 18.0632 13.1089 17.9942 13.824C17.9481 14.2807 17.9526 14.7465 17.9205 15.2083C17.9064 15.7121 17.86 16.2145 17.7817 16.7124C17.5972 17.6171 17.0344 18.0694 16.1023 18.1247C15.8023 18.1431 15.5027 18.1247 15.1749 18.1247V16.8187C15.3502 16.8094 15.5025 16.7951 15.6592 16.7906C16.2178 16.7768 16.4113 16.5968 16.4393 16.0433C16.4715 15.4339 16.4852 14.8251 16.5082 14.2208C16.5497 13.3389 16.7901 12.5544 17.6064 12.0054C17.1407 11.6734 16.7666 11.2674 16.6652 10.7229C16.5495 10.0629 16.5129 9.38475 16.4482 8.71575C16.4158 8.37844 16.416 8.04169 16.3837 7.70944C16.3515 7.34475 16.1023 7.22025 15.7746 7.21594C15.567 7.2117 15.3593 7.21001 15.1517 7.21088V5.93738C15.3782 5.89899 15.6075 5.87831 15.8372 5.8755ZM9.07406 11.1564H9.09281C9.55875 11.1658 9.93244 11.5489 9.92306 12.0148V12.0611C9.89531 12.5179 9.50344 12.8685 9.0465 12.8406H8.99081C8.52938 12.8181 8.16956 12.4211 8.19263 11.9552C8.21588 11.4938 8.61263 11.1336 9.07406 11.1564ZM11.9859 11.1564V11.157C12.4982 11.1523 12.8353 11.484 12.8398 11.9872C12.8398 12.5085 12.5211 12.8409 12.0137 12.8409C11.4967 12.8409 11.1553 12.5177 11.1553 12.015C11.1506 11.9873 11.1506 11.9644 11.1506 11.9364C11.1643 11.4934 11.5382 11.1426 11.9859 11.1564ZM14.9486 11.1564C15.4192 11.1564 15.8342 11.5534 15.8115 12.0105C15.7838 12.504 15.3547 12.9144 14.9299 12.8408H14.9205C14.809 12.8411 14.6985 12.8193 14.5953 12.7768C14.4922 12.7343 14.3985 12.6718 14.3196 12.5929C14.2408 12.5141 14.1783 12.4204 14.1357 12.3173C14.0931 12.2142 14.0714 12.1037 14.0717 11.9921C14.0787 11.7656 14.1746 11.5509 14.3387 11.3945C14.5028 11.2381 14.722 11.1526 14.9486 11.1564Z"
            fill="white" />
    </g>
    <defs>
        <clipPath id="clip0_1046_8">
            <rect width="24" height="24" fill="white" />
        </clipPath>
    </defs>
</svg>