<svg width="24" height="24" viewBox="0 0 24 24" fill="none" xmlns="http://www.w3.org/2000/svg">
    <path
        d="M7.998 16H11.998M7.998 11H15.998M7.5 3.5C5.944 3.547 5.017 3.72 4.375 4.362C3.496 5.242 3.496 6.657 3.496 9.488V15.994C3.496 18.826 3.496 20.241 4.375 21.121C5.253 22 6.668 22 9.496 22H14.496C17.325 22 18.739 22 19.617 21.12C20.497 20.241 20.497 18.826 20.497 15.994V9.488C20.497 6.658 20.497 5.242 19.617 4.362C18.976 3.72 18.048 3.547 16.492 3.5"
        stroke="white" stroke-width="1.5" stroke-linecap="round" stroke-linejoin="round" />
    <path
        d="M7.496 3.75C7.496 2.784 8.28 2 9.246 2H14.746C15.2101 2 15.6552 2.18437 15.9834 2.51256C16.3116 2.84075 16.496 3.28587 16.496 3.75C16.496 4.21413 16.3116 4.65925 15.9834 4.98744C15.6552 5.31563 15.2101 5.5 14.746 5.5H9.246C8.78187 5.5 8.33675 5.31563 8.00857 4.98744C7.68038 4.65925 7.496 4.21413 7.496 3.75Z"
        stroke="white" stroke-width="1.5" stroke-linecap="round" stroke-linejoin="round" />
</svg>