<svg width="150" height="150" viewBox="0 0 150 150" fill="none" xmlns="http://www.w3.org/2000/svg">
    <rect width="150" height="150" rx="75" fill="#13151A" />
    <path
        d="M60.7647 94.22H81.2247C88.5581 94.22 94.3147 92.0567 98.4947 87.73C102.675 83.4033 104.765 77.5733 104.765 70.24C104.765 65.62 103.811 61.55 101.905 58.03C99.9981 54.4367 97.3214 51.6133 93.8747 49.56C90.4281 47.5067 86.3214 46.48 81.5547 46.48H51.3047V127H46.0247V41.2H81.5547C87.3481 41.2 92.3714 42.4467 96.6247 44.94C100.878 47.4333 104.178 50.88 106.525 55.28C108.871 59.6067 110.045 64.5933 110.045 70.24C110.045 79.26 107.478 86.41 102.345 91.69C97.2114 96.8967 90.1714 99.5 81.2247 99.5H66.0447V127H60.7647V94.22ZM60.4347 52.75H77.0447C82.2514 52.75 86.5781 54.18 90.0247 57.04C93.5447 59.9 95.3047 64.3367 95.3047 70.35C95.3047 74.31 94.4981 77.61 92.8847 80.25C91.2714 82.8167 89.0714 84.76 86.2847 86.08C83.5714 87.3267 80.5281 87.95 77.1547 87.95H60.4347V52.75ZM77.1547 82.67C80.7481 82.67 83.7914 81.68 86.2847 79.7C88.7781 77.6467 90.0247 74.53 90.0247 70.35C90.0247 66.0967 88.7781 62.98 86.2847 61C83.7914 59.02 80.7114 58.03 77.0447 58.03H65.7147V82.67H77.1547Z"
        fill="white" />
</svg>