<svg width="24" height="24" viewBox="0 0 24 24" fill="none" xmlns="http://www.w3.org/2000/svg">
<path d="M8.26875 15.3743C7.86975 16.6868 8.15326 18.5123 9.09751 19.3725V19.341L9.12901 19.257C9.24451 18.7013 9.69601 18.3548 10.2735 18.3758C10.8083 18.3863 11.1135 18.6698 11.1863 19.2885C11.2178 19.5195 11.2178 19.7505 11.2283 19.992V20.0655C11.2283 20.5905 11.3753 21.0938 11.6693 21.5348C11.9318 21.9548 12.2993 22.2795 12.792 22.5L12.771 22.458L12.75 22.374C12.3825 21.2723 12.645 20.5065 13.6103 19.8555L13.9043 19.656L14.5553 19.2263C14.9291 18.9648 15.2425 18.6262 15.4742 18.2333C15.706 17.8403 15.8506 17.4022 15.8985 16.9485C15.951 16.5495 15.8985 16.161 15.783 15.7838L15.6255 15.8888C14.1668 16.665 12.498 16.9388 10.8818 16.6238C9.90601 16.476 8.96175 16.2038 8.25825 15.3848L8.26875 15.3743Z" fill="url(#paint0_linear_930_113)"/>
<path d="M3.69373 15.1432C3.69373 15.1432 6.49573 13.7783 9.30823 13.7783L11.4382 7.209C11.5117 6.894 11.7427 6.684 12.0052 6.684C12.2677 6.684 12.4882 6.894 12.5722 7.2195L14.6917 13.779C18.0292 13.779 20.307 15.144 20.307 15.144L15.5317 2.13C15.4057 1.7415 15.1642 1.5 14.8597 1.5H9.15073C8.84623 1.5 8.62573 1.7415 8.47873 2.13L3.69373 15.1432Z" fill="#17191E"/>
<defs>
<linearGradient id="paint0_linear_930_113" x1="8.09046" y1="22.4894" x2="17.2419" y2="18.1761" gradientUnits="userSpaceOnUse">
<stop stop-color="#D83333"/>
<stop offset="1" stop-color="#F041FF"/>
</linearGradient>
</defs>
</svg>
