<svg width="24" height="24" viewBox="0 0 24 24" fill="none" xmlns="http://www.w3.org/2000/svg">
<path d="M8.50722 2.12545H14.7097L8.27097 21.2017C8.20507 21.3981 8.07923 21.5688 7.91119 21.6899C7.74314 21.811 7.54135 21.8763 7.33422 21.8767H2.50722C2.35048 21.8764 2.19608 21.8387 2.05679 21.7668C1.9175 21.695 1.79732 21.591 1.70622 21.4634C1.61511 21.3359 1.55568 21.1885 1.53286 21.0334C1.51004 20.8784 1.52447 20.7201 1.57497 20.5717L7.57497 2.7967C7.64088 2.60034 7.76671 2.42959 7.93475 2.3085C8.1028 2.18741 8.30459 2.12208 8.51172 2.1217L8.50722 2.12545Z" fill="url(#paint0_linear_930_172)"/>
<path d="M17.52 14.9205H7.68524C7.59384 14.9205 7.50454 14.948 7.42898 14.9995C7.35342 15.0509 7.2951 15.1239 7.2616 15.2089C7.2281 15.294 7.22097 15.3871 7.24115 15.4763C7.26133 15.5654 7.30788 15.6465 7.37475 15.7088L13.695 21.6075C13.8785 21.7781 14.1194 21.8735 14.37 21.8745H19.9395L17.52 14.9205Z" fill="#0078D4"/>
<path d="M8.50728 2.12549C8.29818 2.12497 8.09438 2.19116 7.9255 2.31445C7.75662 2.43773 7.63148 2.61168 7.56827 2.81099L1.57953 20.5552C1.52605 20.7043 1.50927 20.8641 1.53058 21.021C1.5519 21.1779 1.61069 21.3274 1.70198 21.4568C1.79328 21.5862 1.91439 21.6917 2.05509 21.7644C2.19578 21.8371 2.35191 21.8749 2.51028 21.8745H7.46027C7.64471 21.8416 7.81711 21.7603 7.95983 21.639C8.10255 21.5176 8.21046 21.3605 8.27253 21.1837L9.46652 17.664L13.7325 21.6435C13.9115 21.7913 14.1357 21.8731 14.3678 21.8752H19.9178L17.484 14.9212H10.3898L14.7323 2.12549H8.50728Z" fill="url(#paint1_linear_930_172)"/>
<path d="M16.4295 2.7967C16.3636 2.60046 16.2379 2.4298 16.07 2.30872C15.9021 2.18764 15.7005 2.12224 15.4935 2.1217H8.58148C8.78848 2.12224 8.99011 2.18764 9.158 2.30872C9.3259 2.4298 9.45162 2.60046 9.51748 2.7967L15.5175 20.5717C15.5676 20.7203 15.5816 20.8787 15.5584 21.0338C15.5352 21.1889 15.4754 21.3362 15.3839 21.4636C15.2924 21.591 15.1719 21.6947 15.0324 21.7663C14.8929 21.8379 14.7383 21.8752 14.5815 21.8752H21.4942C21.6506 21.8744 21.8046 21.8365 21.9434 21.7645C22.0823 21.6926 22.2021 21.5887 22.2929 21.4615C22.3838 21.3342 22.4432 21.1872 22.4661 21.0325C22.4891 20.8778 22.475 20.7199 22.425 20.5717L16.4295 2.7967Z" fill="url(#paint2_linear_930_172)"/>
<defs>
<linearGradient id="paint0_linear_930_172" x1="9.24988" y1="3.61043" x2="3.35466" y2="21.5841" gradientUnits="userSpaceOnUse">
<stop stop-color="#114A8B"/>
<stop offset="1" stop-color="#0669BC"/>
</linearGradient>
<linearGradient id="paint1_linear_930_172" x1="12.434" y1="12.725" x2="11.2424" y2="13.0421" gradientUnits="userSpaceOnUse">
<stop stop-opacity="0.3"/>
<stop offset="0.071" stop-opacity="0.2"/>
<stop offset="0.321" stop-opacity="0.1"/>
<stop offset="0.623" stop-opacity="0.05"/>
<stop offset="1" stop-opacity="0"/>
</linearGradient>
<linearGradient id="paint2_linear_930_172" x1="13.9143" y1="2.88602" x2="20.6484" y2="20.4885" gradientUnits="userSpaceOnUse">
<stop stop-color="#3CCBF4"/>
<stop offset="1" stop-color="#2892DF"/>
</linearGradient>
</defs>
</svg>
