<svg width="31" height="24" viewBox="0 0 31 24" fill="none" xmlns="http://www.w3.org/2000/svg">
<g clip-path="url(#clip0_1024_44)">
<path d="M6.2567 0C4.53823 0 3.26659 1.50412 3.32353 3.13529C3.37823 4.70235 3.30717 6.73212 2.79623 8.38729C2.28376 10.0473 1.41694 11.0988 0.00117493 11.2339V12.7581C1.41694 12.8932 2.28376 13.9447 2.79623 15.6048C3.30717 17.26 3.37823 19.2895 3.32353 20.8567C3.26659 22.4876 4.53823 23.992 6.25694 23.992H23.8655C25.5841 23.992 26.8554 22.4879 26.7985 20.8567C26.7439 19.2896 26.8148 17.26 27.3258 15.6048C27.8386 13.9448 28.7031 12.8931 30.1188 12.7581V11.2339C28.7031 11.0988 27.8386 10.0473 27.3259 8.38729C26.8148 6.73235 26.7439 4.70247 26.7985 3.13529C26.8554 1.50435 25.5841 0 23.8655 0H6.25647H6.2567ZM20.42 14.7686C20.42 17.0147 18.7447 18.3768 15.9645 18.3768H11.2315C11.0962 18.3768 10.9664 18.323 10.8707 18.2272C10.775 18.1315 10.7212 18.0017 10.7212 17.8664V6.12565C10.7212 5.99025 10.775 5.8604 10.8707 5.76465C10.9664 5.6689 11.0962 5.61509 11.2316 5.61506H15.9374C18.2556 5.61506 19.7771 6.87094 19.7771 8.79894C19.7771 10.1522 18.7535 11.3638 17.4496 11.5759V11.6466C19.2248 11.8413 20.42 13.0706 20.42 14.7686ZM15.4482 7.23329H12.7498V11.0451H15.0227C16.7796 11.0451 17.7486 10.3375 17.7486 9.07282C17.7486 7.88777 16.9153 7.23329 15.4482 7.23329ZM12.7499 12.5575V16.7581H15.5478C17.3769 16.7581 18.3461 16.0241 18.3461 14.6446C18.3461 13.2648 17.35 12.5573 15.4301 12.5573H12.7499V12.5575Z" fill="#7E13F8"/>
</g>
<defs>
<clipPath id="clip0_1024_44">
<rect width="30.12" height="24" fill="white"/>
</clipPath>
</defs>
</svg>
