<svg width="24" height="24" viewBox="0 0 24 24" fill="none" xmlns="http://www.w3.org/2000/svg">
<path fill-rule="evenodd" clip-rule="evenodd" d="M2.09177 10.2805C2.0462 10.2805 2.03495 10.2576 2.05764 10.2237L2.29633 9.91672C2.31883 9.8826 2.37583 9.85991 2.4212 9.85991H6.47814C6.5237 9.85991 6.53495 9.89404 6.51227 9.92816L6.31914 10.2237C6.29645 10.2576 6.23964 10.2917 6.20552 10.2917L2.09177 10.2805ZM0.375767 11.3258C0.330392 11.3258 0.318954 11.3033 0.341642 11.269L0.580329 10.9622C0.603017 10.9281 0.659829 10.9054 0.705392 10.9054H5.88714C5.93252 10.9054 5.95539 10.9395 5.94395 10.9737L5.85302 11.2463C5.84177 11.2918 5.7962 11.3145 5.75083 11.3145L0.375767 11.3258ZM3.12564 12.3713C3.08027 12.3713 3.06902 12.3372 3.0917 12.303L3.2507 12.019C3.27358 11.9848 3.31895 11.9509 3.36452 11.9509H5.63702C5.68258 11.9509 5.70527 11.9848 5.70527 12.0304L5.68277 12.303C5.68277 12.3486 5.6372 12.3827 5.60308 12.3827L3.12564 12.3713ZM14.9213 10.0759C14.2052 10.2578 13.7166 10.3941 13.0121 10.5758C12.8415 10.6213 12.8303 10.6326 12.6825 10.4622C12.5121 10.269 12.387 10.144 12.1485 10.0303C11.4325 9.67822 10.7393 9.78041 10.0916 10.201C9.31895 10.7008 8.92127 11.4394 8.93252 12.3598C8.94377 13.269 9.56889 14.019 10.4666 14.1441C11.2393 14.2463 11.8871 13.9735 12.3985 13.3941C12.5006 13.269 12.5916 13.1327 12.7052 12.9735H10.512C10.2735 12.9735 10.2167 12.8258 10.2962 12.6327C10.444 12.2803 10.7166 11.6895 10.8756 11.394C10.9099 11.3258 10.9894 11.2122 11.1598 11.2122H15.2961C15.2736 11.5191 15.2736 11.8258 15.228 12.1328C15.103 12.9508 14.7962 13.7008 14.2961 14.3599C13.4779 15.4395 12.4099 16.1098 11.0575 16.2917C9.94389 16.4395 8.90983 16.2235 8.00083 15.5417C7.15989 14.9053 6.6827 14.0644 6.55764 13.0191C6.40989 11.7805 6.77345 10.6667 7.52345 9.68947C8.33027 8.63272 9.39845 7.96222 10.7053 7.72354C11.7735 7.53041 12.7961 7.65547 13.7166 8.28041C14.3188 8.6781 14.7506 9.22354 15.0347 9.8826C15.103 9.98497 15.0576 10.0418 14.9211 10.0757L14.9213 10.0759Z" fill="#00ACD7"/>
<path d="M18.6825 16.3599C17.6484 16.3371 16.7051 16.0417 15.9097 15.3598C15.2392 14.7804 14.8189 14.0417 14.6826 13.1666C14.478 11.8826 14.8301 10.7462 15.603 9.73499C16.4325 8.64393 17.4324 8.0758 18.7849 7.83711C19.9438 7.63274 21.0349 7.74636 22.0234 8.41668C22.9211 9.03036 23.4778 9.85986 23.6256 10.9507C23.8187 12.4849 23.3756 13.7349 22.3187 14.8031C21.5687 15.5644 20.6482 16.0417 19.5915 16.2576C19.2847 16.3144 18.9778 16.3258 18.6825 16.3599ZM21.387 11.769C21.3757 11.6212 21.3757 11.5076 21.3529 11.394C21.1485 10.269 20.1142 9.63261 19.0348 9.88274C17.9779 10.1212 17.2961 10.7917 17.0462 11.8599C16.8416 12.7462 17.2734 13.644 18.0915 14.0076C18.7166 14.2804 19.3416 14.2462 19.9438 13.9395C20.8416 13.4736 21.3302 12.7462 21.387 11.769Z" fill="#00ACD7"/>
</svg>
