<svg width="24" height="24" viewBox="0 0 24 24" fill="none" xmlns="http://www.w3.org/2000/svg">
<g clip-path="url(#clip0_930_71)">
<path d="M12.0142 0.000110325C13.9621 0.000110325 15.7961 0.455173 17.5166 1.3367L17.7441 1.45052L17.545 1.60689C17.0617 1.9908 16.6778 2.48842 16.436 3.05711L16.3649 3.21348L16.2228 3.14242C14.9004 2.51683 13.4929 2.18983 12.0284 2.18983C6.61134 2.18983 2.21803 6.59739 2.21803 12.0002C2.21803 17.403 6.59709 21.8107 12.0142 21.8107C17.4314 21.8107 21.8246 17.4031 21.8246 12.0002C21.8246 10.7065 21.5829 9.44102 21.0711 8.24664L21 8.09027L21.1564 8.0192C21.7393 7.80592 22.2512 7.45052 22.6635 6.99545L22.8199 6.79642L22.9194 7.02395C23.6446 8.60214 24 10.2799 24 11.9718C24 18.5831 18.6113 23.9718 12 23.9718C5.38866 23.9718 0 18.5831 0 11.9719C0 5.36064 5.38866 -0.0281084 12.0142 0.000110325ZM12.0142 6.54048C15.0142 6.54048 17.474 8.98605 17.4881 12.0145C17.4881 15.0429 15.0427 17.4884 12.0142 17.4884C8.98575 17.4884 6.54028 15.0429 6.54028 12.0145C6.54028 8.98605 9 6.54048 12.0142 6.54048ZM19.8484 2.0192C21.2303 2.0192 22.3508 3.13952 22.3508 4.52158C22.3508 5.90355 21.2304 7.02395 19.8484 7.02395C18.4663 7.02395 17.346 5.90364 17.346 4.52158C17.346 3.13952 18.4663 2.0192 19.8484 2.0192Z" fill="#3880FF"/>
</g>
<defs>
<clipPath id="clip0_930_71">
<rect width="24" height="24" fill="white"/>
</clipPath>
</defs>
</svg>
