<svg width="24" height="24" viewBox="0 0 24 24" fill="none" xmlns="http://www.w3.org/2000/svg">
<g clip-path="url(#clip0_930_168)">
<path d="M14.8806 11.2041L10.0742 12.7735L5.89294 14.6189L4.72294 14.9279C4.41413 15.2227 4.09797 15.5098 3.77475 15.7889C3.40425 16.1084 3.05925 16.3992 2.79413 16.6097C2.49975 16.8422 2.06381 17.2782 1.84219 17.5544C1.51144 17.9685 1.25006 18.408 1.13738 18.7459C0.937501 19.3562 1.03575 19.9739 1.42069 20.5442C1.91494 21.2708 2.89931 22.012 4.04719 22.5167C4.63219 22.7749 5.61656 23.1055 6.35794 23.2905C7.58925 23.6031 9.97256 23.9412 11.2839 23.9918C11.5491 24.0029 11.9051 24.0029 11.9196 23.9918C11.9488 23.9736 12.1523 23.5849 12.3885 23.1019C13.1948 21.456 13.776 19.9122 14.0923 18.5933C14.2811 17.7942 14.43 16.7297 14.5281 15.4692C14.5536 15.1167 14.5644 13.936 14.5427 13.5364C14.5099 12.8826 14.4518 12.3522 14.3608 11.8328C14.3464 11.7563 14.3428 11.6873 14.3501 11.6835C14.3646 11.6729 14.4083 11.6582 15.0004 11.4874L14.8806 11.2041ZM13.7835 11.8472C13.8272 11.8472 13.9433 12.9623 13.9723 13.6671C13.9796 13.8162 13.9761 13.9142 13.9686 13.9142C13.9397 13.9142 13.3547 13.5692 12.9371 13.3075C12.5738 13.0787 11.8834 12.621 11.7746 12.5337C11.7381 12.5084 11.7416 12.5046 12.0396 12.403C12.5445 12.2324 13.7436 11.847 13.7833 11.847L13.7835 11.8472ZM11.3348 12.6535C11.3676 12.6535 11.451 12.7007 11.6509 12.8243C12.3992 13.293 13.4166 13.8599 13.8525 14.0487C13.9868 14.1068 14.0014 14.0849 13.6926 14.2958C13.0314 14.7462 12.2068 15.1894 11.1969 15.6362C11.0188 15.7161 10.8698 15.7778 10.8662 15.7778C10.8589 15.7778 10.8808 15.687 10.9099 15.5781C11.1531 14.6734 11.2913 13.758 11.2986 13.0242C11.3023 12.6608 11.3023 12.6608 11.3349 12.6499C11.3274 12.6537 11.3312 12.6537 11.3349 12.6537L11.3348 12.6535ZM10.83 12.846C10.8518 12.868 10.8371 13.6817 10.8081 13.9034C10.7429 14.4388 10.6311 14.9676 10.4739 15.4836C10.434 15.618 10.3976 15.7307 10.3903 15.7379C10.3757 15.756 9.87806 15.2691 9.71456 15.0803C9.43125 14.7533 9.20963 14.4265 9.04613 14.1068C8.96269 13.9433 8.83181 13.6236 8.84269 13.6127C8.90081 13.5726 10.8154 12.8316 10.83 12.846ZM8.454 13.7798C8.45756 13.7798 8.46113 13.7798 8.46488 13.7834C8.47219 13.7907 8.49769 13.849 8.51944 13.9142C8.63569 14.2302 8.89706 14.6952 9.12244 14.9931C9.36956 15.3201 9.69281 15.669 9.96169 15.8978C10.0489 15.9704 10.1288 16.0394 10.1396 16.0502C10.1614 16.0722 10.1687 16.0684 9.57638 16.2938C8.89013 16.5554 8.14163 16.8169 7.28419 17.0929C7.07938 17.159 6.87475 17.2256 6.67031 17.2928C6.6375 17.3037 6.64856 17.2853 6.74288 17.1364C7.16794 16.4719 7.81444 15.1677 8.17781 14.2448C8.23969 14.0849 8.30156 13.9251 8.31244 13.8887C8.32688 13.8379 8.34506 13.8197 8.39213 13.7942C8.41763 13.7871 8.44313 13.7798 8.454 13.7798ZM7.72744 14.0813C7.73831 14.0886 7.55306 14.4773 7.37138 14.8332C7.01888 15.52 6.63394 16.1957 6.11813 17.0168C6.03075 17.1584 5.9475 17.2892 5.93625 17.3037C5.91825 17.3292 5.91113 17.3219 5.85281 17.2094C5.72925 16.9658 5.62763 16.6534 5.57306 16.3664C5.51869 16.083 5.52956 15.589 5.59144 15.2837C5.63831 15.0587 5.63494 15.0623 5.74388 15.0077C6.20888 14.7715 7.71281 14.0669 7.72744 14.0813ZM13.9941 14.3357V14.4882C13.9941 15.2984 13.9069 16.41 13.7798 17.22C13.758 17.3618 13.7398 17.478 13.7363 17.4818C13.7363 17.4818 13.6309 17.4527 13.5075 17.4164C12.9285 17.2325 12.3687 16.9928 11.8361 16.7007C11.4836 16.5081 10.9718 16.192 10.9862 16.1775C10.9898 16.1738 11.1424 16.0939 11.3203 15.9994C12.0324 15.6289 12.7153 15.2294 13.3076 14.8332C13.5293 14.6843 13.8634 14.4447 13.9359 14.3792L13.9941 14.3357ZM4.98469 15.4109C4.99913 15.4109 4.99538 15.4399 4.97363 15.5708C4.9555 15.6997 4.94218 15.8293 4.93369 15.9593C4.90463 16.4899 4.99181 16.8824 5.25338 17.4199C5.32613 17.5688 5.38425 17.6924 5.3805 17.6959C5.35519 17.7179 2.95013 18.4227 2.1945 18.6297C1.96931 18.6915 1.77319 18.7459 1.75856 18.7495C1.73306 18.757 1.7295 18.7532 1.74038 18.6914C1.824 18.1574 2.23088 17.4599 2.79769 16.8713C3.17531 16.4789 3.477 16.2501 3.99281 15.9559C4.36331 15.7452 4.93369 15.429 4.97719 15.4146C4.97719 15.4109 4.98094 15.4109 4.98469 15.4109ZM10.6519 16.4245C10.6556 16.4207 10.7426 16.4682 10.848 16.5299C11.6256 16.9804 12.708 17.3982 13.6307 17.6125L13.7143 17.6307L13.5981 17.6961C13.1151 17.965 11.5273 18.6261 9.90356 19.2327C9.66731 19.3199 9.43481 19.407 9.39131 19.4252C9.34781 19.4434 9.30769 19.4543 9.30769 19.4505C9.30769 19.4468 9.37313 19.3199 9.45656 19.1637C9.91069 18.3135 10.3684 17.2782 10.6011 16.5589C10.6301 16.4899 10.6481 16.4282 10.6517 16.4245H10.6519ZM10.0744 16.6133C10.0779 16.617 10.0489 16.6934 10.0125 16.7805C9.69638 17.547 9.28219 18.3827 8.75175 19.3199C8.6175 19.5599 8.50481 19.7522 8.50125 19.7522C8.49769 19.7522 8.38856 19.6868 8.25769 19.6069C7.48763 19.1346 6.80456 18.5534 6.35794 17.9903L6.29231 17.9104L6.62306 17.8195C7.80731 17.4962 8.81363 17.1475 9.81263 16.7189C9.95438 16.6607 10.0708 16.6133 10.0744 16.6133ZM13.6635 17.8667C13.6673 17.9504 13.4818 18.6987 13.3292 19.24C13.2021 19.6941 13.0931 20.05 12.8933 20.6785C12.8063 20.9549 12.7301 21.1834 12.7264 21.1834C12.7226 21.1834 12.7009 21.18 12.6789 21.1727C11.6001 20.9764 10.6337 20.704 9.72544 20.3408C9.47119 20.239 9.108 20.0755 9.08606 20.0573C9.07894 20.05 9.29681 19.9484 9.573 19.8285C11.226 19.1055 12.9405 18.2845 13.5293 17.9322C13.5983 17.8885 13.6526 17.8667 13.6635 17.8667ZM5.37694 18.15C5.38425 18.1575 4.92281 18.8222 4.27631 19.7269C4.05094 20.0429 3.78938 20.4134 3.69131 20.5514C3.57787 20.7114 3.46766 20.8738 3.36075 21.0383L3.20813 21.2745L3.04463 21.1364C2.85206 20.9764 2.51794 20.635 2.36888 20.4462C2.0565 20.0575 1.84575 19.6469 1.76231 19.2728C1.72219 19.0984 1.72219 19.011 1.75856 19.0004C2.40226 18.8466 3.04652 18.6951 3.69131 18.546C4.12523 18.4461 4.55874 18.3445 4.99181 18.241C5.20256 18.1902 5.37338 18.15 5.37694 18.15ZM5.84194 18.3282L5.95819 18.4589C6.48131 19.0439 7.01531 19.4762 7.662 19.8539C7.77825 19.9195 7.86544 19.9776 7.85813 19.9814C7.83281 19.9994 5.613 20.7876 4.58494 21.1437C4.23336 21.2682 3.88097 21.3906 3.52781 21.5106C3.52425 21.5106 3.49144 21.4887 3.45525 21.4634L3.38981 21.4161L3.49519 21.2635C3.83644 20.7694 4.26525 20.2281 5.19881 19.102L5.84194 18.3282ZM8.74106 20.4025C8.74463 20.3987 8.90438 20.4569 9.10069 20.5298C9.573 20.7077 9.94706 20.8204 10.4484 20.9475C11.0661 21.1037 11.9597 21.2564 12.4866 21.3C12.5664 21.3072 12.6099 21.3145 12.5955 21.3254C12.57 21.3398 12.036 21.5179 11.6438 21.6413C11.0188 21.8376 9.11156 22.4007 7.55663 22.8475C7.37418 22.9009 7.19136 22.953 7.00819 23.0039C6.97181 23.011 6.85181 22.9782 6.85181 22.9637C6.85181 22.9566 6.939 22.8439 7.04438 22.7204C7.5675 22.0954 8.08706 21.3979 8.51944 20.7368C8.63944 20.5551 8.74106 20.406 8.74106 20.4025ZM8.10169 20.4207C8.10525 20.4244 7.84725 20.8384 7.39669 21.5505C7.20431 21.852 6.98981 22.1937 6.91369 22.3135C6.84094 22.4297 6.73181 22.6114 6.67031 22.713L6.56494 22.8983L6.51038 22.8839C6.3795 22.8475 5.46038 22.524 5.217 22.426C4.92836 22.3112 4.64586 22.1815 4.37063 22.0375C4.08 21.8811 3.71681 21.6486 3.74588 21.6413C3.753 21.6375 4.25081 21.5033 4.85025 21.3398C6.44119 20.9074 7.32413 20.6569 7.90181 20.4752C8.00719 20.4424 8.09794 20.4171 8.1015 20.4209L8.10169 20.4207ZM12.6246 21.4814H12.6283C12.6428 21.5179 12.0542 23.1525 11.8397 23.6684C11.7926 23.7846 11.7744 23.8139 11.7489 23.8101C11.6873 23.8064 10.8336 23.6867 10.314 23.6104C9.4095 23.4724 7.89075 23.2071 7.50956 23.1199L7.42219 23.1017L7.9635 22.9782C9.126 22.7166 9.6855 22.575 10.2523 22.4007C10.9842 22.1769 11.6993 21.9012 12.3921 21.5759C12.5046 21.5252 12.5991 21.4849 12.6246 21.4814Z" fill="url(#paint0_linear_930_168)"/>
<path d="M9.92528 0.0001875C9.84541 -0.0106875 8.5556 0.454312 7.72385 0.792187C6.6011 1.24987 5.72941 1.68581 5.19166 2.06362C4.99178 2.20537 4.7411 2.45606 4.70116 2.55412C4.68625 2.59359 4.67887 2.6355 4.67941 2.67769L5.16635 3.13894L6.3251 3.50963L9.08247 4.00369L12.2357 4.545L12.2685 4.27256C12.2576 4.27256 12.2503 4.26881 12.2394 4.26881L11.8252 4.20356L11.7418 4.0545C11.313 3.29888 10.8408 2.36156 10.5647 1.7295C10.3505 1.239 10.1469 0.672375 10.0344 0.2655C9.97253 0.018375 9.96541 0.00375 9.92528 0V0.0001875ZM9.86716 0.185438H9.87091C9.87447 0.189188 9.88891 0.291 9.90353 0.410812C9.96541 0.919312 10.0779 1.40981 10.256 1.94025C10.3903 2.33962 10.3903 2.31806 10.2341 2.27081C9.8636 2.16919 8.20347 1.88212 7.00085 1.71487C6.80828 1.68956 6.64478 1.66425 6.64478 1.6605C6.63035 1.64587 7.51291 1.18462 7.90178 1.00294C8.39941 0.774187 9.76553 0.203625 9.86716 0.185438ZM6.36503 1.81313L6.50678 1.86037C7.27703 2.12194 9.21316 2.49262 10.2813 2.57981C10.4012 2.59069 10.503 2.60156 10.5063 2.60156C10.5101 2.60531 10.4085 2.65969 10.2776 2.72137C9.76178 2.97937 9.19497 3.2955 8.80272 3.53888C8.68647 3.61144 8.5811 3.66975 8.56647 3.66975C8.55203 3.66975 8.47572 3.65512 8.39585 3.64406L8.25053 3.62231L7.88716 3.26625C7.44541 2.83603 7.00103 2.40852 6.55403 1.98375L6.36503 1.81313ZM6.21972 1.92581L6.73197 2.56519C7.01172 2.91769 7.29522 3.26269 7.35691 3.339C7.4186 3.41531 7.46941 3.477 7.46566 3.48075C7.45122 3.49162 6.72466 3.34988 6.33972 3.26288C5.94372 3.17194 5.78022 3.12825 5.53685 3.05194L5.33697 2.9865V2.93587C5.34072 2.69213 5.64953 2.32894 6.17247 1.95863L6.21972 1.92581ZM10.572 2.79769C10.5864 2.79769 10.6046 2.83031 10.6481 2.92838C10.7718 3.20081 11.1568 3.93469 11.2513 4.07644C11.2803 4.12369 11.3312 4.12744 10.8189 4.04381C9.58741 3.84394 9.19141 3.7785 9.19141 3.77138C9.19141 3.76763 9.22778 3.74231 9.27503 3.71681C9.6566 3.50606 10.0415 3.23737 10.3832 2.95031C10.4666 2.88131 10.5429 2.81588 10.5575 2.805C10.5611 2.79769 10.5682 2.79412 10.572 2.79769Z" fill="url(#paint1_linear_930_168)"/>
<path d="M4.7267 2.50317C4.7267 2.50317 4.64682 2.63049 4.72295 2.81949C4.7702 2.93574 4.9082 3.0773 5.06457 3.22261C5.06457 3.22261 6.68101 4.7993 6.87732 5.02449C7.77095 6.0563 8.15982 7.07349 8.19601 8.4758C8.21795 9.37674 8.04713 10.1687 7.62207 11.0879C6.86645 12.7371 5.27157 14.5574 2.81213 16.5771L3.17176 16.4571C3.40426 16.2827 3.72038 16.0977 4.46157 15.6908C6.17251 14.7533 8.09795 13.8925 10.4593 13.0058C13.8596 11.727 19.4507 10.2304 22.6329 9.74367L22.9637 9.69286L22.9127 9.6128C22.6221 9.16224 22.4222 8.88267 22.1824 8.58474C21.4849 7.72017 20.6387 7.01911 19.6031 6.43786C18.1791 5.64211 16.3373 5.02092 14.0049 4.55967C13.5653 4.4723 12.5989 4.30524 11.8142 4.18542C10.5045 3.98391 9.19665 3.77078 7.89076 3.54605C7.4657 3.4733 6.82988 3.36436 6.40857 3.27342C6.19051 3.22617 5.77295 3.12811 5.44595 3.01561C5.18438 2.9138 4.80657 2.81217 4.72651 2.50336L4.7267 2.50317ZM5.66401 3.41142C5.66757 3.40805 5.7257 3.4298 5.80201 3.45511C5.97603 3.51357 6.15173 3.56691 6.32888 3.61505C6.4883 3.6589 6.64812 3.70128 6.80832 3.74217C7.0262 3.79655 7.20788 3.84736 7.21145 3.84736C7.23695 3.87286 7.60388 5.04624 7.72745 5.4968C7.7747 5.66742 7.81107 5.81274 7.80751 5.81274C7.80376 5.81649 7.76382 5.75461 7.71657 5.67117C7.29151 4.92286 6.61951 4.16367 5.84195 3.55317C5.74032 3.48061 5.66401 3.41517 5.66401 3.41142ZM7.45126 3.90567C7.46963 3.90567 7.54951 3.91655 7.64757 3.9383C8.26501 4.0763 9.37313 4.28705 10.0813 4.40705C10.2013 4.42524 10.2958 4.44699 10.2958 4.45411C10.2958 4.46161 10.2523 4.48692 10.1978 4.51599C10.0778 4.57767 9.59476 4.86474 9.43482 4.97349C9.0317 5.24255 8.66832 5.53317 8.40676 5.79474C8.30138 5.90011 8.21063 5.9873 8.21063 5.9873C8.21063 5.9873 8.18888 5.92542 8.17051 5.8493C8.03982 5.34417 7.76738 4.59586 7.52026 4.06899C7.48032 3.98555 7.4477 3.90924 7.4477 3.90211C7.4477 3.90924 7.44751 3.90567 7.45126 3.90567ZM10.5975 4.50492C10.6193 4.51242 10.6556 4.6358 10.7282 4.90824C10.8645 5.45187 10.9232 6.01204 10.9026 6.57211C10.8953 6.72474 10.8879 6.86649 10.8806 6.88467L10.8698 6.92086L10.6809 6.85899C10.2923 6.73561 9.6602 6.55036 9.11888 6.39774C8.81007 6.31411 8.55938 6.23799 8.55938 6.23086C8.55938 6.20892 9.00995 5.75836 9.20251 5.58774C9.56926 5.2643 10.5647 4.49424 10.5975 4.50492ZM10.848 4.5413C10.8589 4.53042 12.3521 4.78824 13.0314 4.91911C13.5366 5.01717 14.2703 5.1698 14.3139 5.18799C14.3355 5.1953 14.2594 5.23861 14.0158 5.34792C13.0568 5.78011 12.3448 6.1688 11.6364 6.64111C11.4512 6.76467 11.2948 6.86649 11.2914 6.86649C11.2877 6.86649 11.2839 6.76111 11.2839 6.63399C11.2839 5.9438 11.1461 5.24611 10.8917 4.65774C10.8662 4.59961 10.8444 4.54505 10.848 4.54149V4.5413ZM14.7098 5.30442C14.7206 5.31511 14.6736 5.60949 14.6299 5.78386C14.499 6.32517 14.1467 7.12805 13.7145 7.88367C13.638 8.01811 13.569 8.12705 13.5617 8.13061C13.5546 8.13436 13.4567 8.0798 13.3438 8.01436C12.9225 7.76724 12.4429 7.53492 11.9198 7.31686C11.7744 7.25499 11.6473 7.20436 11.6438 7.19686C11.6183 7.1753 12.7881 6.40149 13.4055 6.0308C13.8962 5.73286 14.6955 5.2898 14.7098 5.30424V5.30442ZM14.9859 5.34792C15.0186 5.34792 15.6797 5.52942 16.0249 5.63124C16.8786 5.88549 17.8596 6.24511 18.4989 6.53574L18.7641 6.65574L18.5788 6.69924C17.0169 7.05886 15.6799 7.47324 14.3901 7.99617C14.2847 8.03986 14.1902 8.07624 14.1831 8.07624C14.1759 8.07624 14.2121 7.99261 14.2594 7.89099C14.6481 7.06617 14.8988 6.20536 14.9606 5.4713C14.9642 5.4023 14.9751 5.34792 14.9859 5.34792ZM8.4032 6.85917C8.41407 6.8483 8.91882 6.96811 9.19145 7.04442C9.60582 7.16067 10.4848 7.45505 10.4848 7.47661C10.4848 7.48036 10.3868 7.56399 10.2705 7.66561C9.79463 8.06161 9.33676 8.47936 8.78813 9.0098C8.62482 9.16599 8.48682 9.29311 8.47951 9.29311C8.47201 9.29311 8.46863 9.27136 8.47201 9.2423C8.55563 8.63199 8.53763 7.8473 8.42138 7.05174C8.41032 6.94992 8.39963 6.86274 8.4032 6.85917ZM19.0148 6.87005C19.0219 6.87736 18.7823 7.25499 18.6296 7.4693C18.4118 7.78186 18.0919 8.19605 17.3691 9.1043C17.0506 9.5041 16.7333 9.90492 16.4173 10.3067C16.272 10.4884 16.1522 10.6409 16.1483 10.6409C16.1449 10.6409 16.0976 10.5756 16.0466 10.4957C15.6398 9.88524 15.153 9.35124 14.5753 8.8718C14.4873 8.79728 14.3977 8.72458 14.3066 8.65374C14.2665 8.62467 14.2339 8.59561 14.2339 8.59186C14.2339 8.58117 14.8513 8.31586 15.3201 8.12705C16.1413 7.79274 17.2599 7.39317 18.0994 7.13517C18.5389 6.99717 19.0074 6.86274 19.0148 6.87005ZM19.2945 6.94261C19.3089 6.93905 19.3963 6.98274 19.5015 7.04442C20.3844 7.54936 21.249 8.1998 21.9319 8.86805C22.1244 9.05705 22.6005 9.55111 22.5932 9.55467C22.5932 9.55467 22.4259 9.5693 22.2298 9.58374C20.7004 9.69999 18.7423 10.0232 16.8606 10.4774C16.7333 10.5064 16.6206 10.5317 16.6134 10.5317C16.6063 10.5317 16.7479 10.3902 16.926 10.2195C18.0304 9.15511 18.5353 8.48311 19.131 7.28405C19.2146 7.1063 19.2872 6.95349 19.2945 6.94261C19.2908 6.94261 19.2908 6.94261 19.2945 6.94261ZM11.2041 7.77099C11.2549 7.78186 11.7272 8.00349 12.0833 8.18161C12.4103 8.34492 12.9008 8.60649 12.9261 8.62842C12.9298 8.63199 12.7554 8.72274 12.5409 8.8283C11.9005 9.14667 11.2739 9.49205 10.6628 9.86349C10.4884 9.96886 10.3431 10.056 10.3395 10.056C10.3249 10.056 10.3286 10.0414 10.4267 9.86349C10.7537 9.2678 11.0153 8.55567 11.1641 7.86174C11.1786 7.80736 11.1932 7.77099 11.2041 7.77099ZM10.7318 7.85817C10.7426 7.86905 10.6193 8.31586 10.5429 8.55942C10.3939 9.02067 10.1432 9.59817 9.89982 10.0343C9.8417 10.1359 9.75451 10.285 9.70726 10.3684L9.61651 10.5137L9.41307 10.3176C9.17682 10.0889 8.98445 9.94711 8.73751 9.8198C8.63926 9.76917 8.56295 9.72549 8.56295 9.71817C8.56295 9.68911 9.18432 9.12605 9.6602 8.71917C10.0014 8.4248 10.7209 7.8473 10.7318 7.85817ZM13.62 9.04617L13.7981 9.16242C14.205 9.42774 14.6844 9.78005 15.0514 10.0887C15.2584 10.2593 15.6579 10.6193 15.738 10.7063L15.7815 10.7535L15.4871 10.8372C13.8234 11.2984 12.5374 11.709 11.037 12.2612C10.8698 12.3231 10.7282 12.3737 10.7173 12.3737C10.6956 12.3737 10.6774 12.3919 11.0516 12.0467C12.0107 11.1642 12.8606 10.1905 13.4929 9.2423L13.62 9.04617ZM12.8606 9.23499C12.8681 9.2423 12.3703 9.94336 12.0724 10.3394C11.7163 10.8117 11.0843 11.6037 10.6481 12.1195C10.4666 12.334 10.3106 12.5119 10.3031 12.5155C10.2923 12.5192 10.2885 12.4649 10.2885 12.381C10.2885 11.9415 10.176 11.4728 9.97988 11.0732C9.89626 10.9062 9.88163 10.8662 9.90001 10.848C9.96901 10.7862 11.0261 10.1832 11.6944 9.82355C12.1451 9.58374 12.8498 9.22786 12.8606 9.23499ZM8.26876 10.3613C8.27963 10.3613 8.36307 10.4048 8.45776 10.4556C8.67883 10.5761 8.88801 10.7172 9.08251 10.8771C9.08982 10.8842 8.99532 10.9607 8.87176 11.0515C8.52676 11.2984 8.00363 11.6946 7.69838 11.938C7.3787 12.1922 7.36782 12.1994 7.40401 12.145C7.64401 11.778 7.76382 11.571 7.89095 11.3057C8.0079 11.059 8.10977 10.8054 8.19601 10.5464C8.22507 10.4414 8.26145 10.3613 8.26876 10.3613ZM9.49313 11.3202C9.51113 11.3168 9.53307 11.3494 9.63095 11.4947C9.83795 11.8035 9.99788 12.2177 10.0378 12.5519L10.0453 12.6244L9.54751 12.8172C8.65745 13.1622 7.83638 13.5036 7.28063 13.758C7.07759 13.8533 6.87533 13.9501 6.67388 14.0487C6.49576 14.1394 6.35063 14.2084 6.35063 14.2049C6.35063 14.2013 6.46313 14.1177 6.60113 14.0159C7.68751 13.2276 8.62838 12.3629 9.3332 11.4983C9.40951 11.4075 9.47851 11.3239 9.48563 11.3204L9.49313 11.3202ZM8.92988 11.4584C8.94451 11.4728 8.53032 11.9415 8.24701 12.2286C7.54576 12.9441 6.85201 13.5036 5.99101 14.0485C5.88188 14.1175 5.78382 14.1794 5.77295 14.1865C5.74763 14.2011 5.78007 14.1647 6.15807 13.7543C6.37962 13.5165 6.58938 13.2679 6.78657 13.0095C6.92457 12.8314 6.94988 12.8061 7.14976 12.6645C7.68395 12.2792 8.91545 11.4439 8.92988 11.4584Z" fill="url(#paint2_radial_930_168)"/>
</g>
<defs>
<linearGradient id="paint0_linear_930_168" x1="4.65534" y1="21.6269" x2="6.39245" y2="20.6005" gradientUnits="userSpaceOnUse">
<stop stop-color="#909CA9"/>
<stop offset="1" stop-color="#EDEDEE"/>
</linearGradient>
<linearGradient id="paint1_linear_930_168" x1="4.69509" y1="2.27593" x2="6.09281" y2="2.27593" gradientUnits="userSpaceOnUse">
<stop stop-color="#939FAB"/>
<stop offset="1" stop-color="#DCDEE1"/>
</linearGradient>
<radialGradient id="paint2_radial_930_168" cx="0" cy="0" r="1" gradientUnits="userSpaceOnUse" gradientTransform="translate(11.7636 8.71124) rotate(-171.408) scale(1.80357 3.60739)">
<stop stop-color="#EE352C"/>
<stop offset="1" stop-color="#A91D22"/>
</radialGradient>
<clipPath id="clip0_930_168">
<rect width="24" height="24" fill="white"/>
</clipPath>
</defs>
</svg>
