<svg width="22" height="24" viewBox="0 0 22 24" fill="none" xmlns="http://www.w3.org/2000/svg">
<g clip-path="url(#clip0_1021_20)">
<mask id="mask0_1021_20" style="mask-type:luminance" maskUnits="userSpaceOnUse" x="0" y="0" width="22" height="24">
<path d="M22 0H0V24H22V0Z" fill="white"/>
</mask>
<g mask="url(#mask0_1021_20)">
<path d="M11.5945 0.150596C11.2214 -0.0501986 10.7782 -0.0501986 10.4051 0.150596L0.587467 5.57271C0.214312 5.7735 0.00445557 6.15282 0.00445557 6.5544V17.4208C0.00445557 17.8225 0.237677 18.2018 0.587467 18.4026L10.4051 23.8246C10.7782 24.0255 11.2214 24.0255 11.5945 23.8246L21.4121 18.4026C21.7853 18.2018 21.9952 17.8225 21.9952 17.4208V6.5544C21.9952 6.15282 21.7619 5.7735 21.4121 5.57271L11.5945 0.150596Z" fill="url(#paint0_linear_1021_20)"/>
<mask id="mask1_1021_20" style="mask-type:luminance" maskUnits="userSpaceOnUse" x="0" y="-1" width="22" height="25">
<path d="M11.5945 0.150352C11.2214 -0.0504428 10.7782 -0.0504428 10.4051 0.150352L0.587467 5.57246C0.214312 5.77326 0.00445557 6.15257 0.00445557 6.55416V17.4206C0.00445557 17.8222 0.237677 18.2016 0.587467 18.4024L10.4051 23.8244C10.7782 24.0253 11.2214 24.0253 11.5945 23.8244L21.4121 18.4024C21.7853 18.2016 21.9952 17.8222 21.9952 17.4206V6.55416C21.9952 6.15257 21.7619 5.77326 21.4121 5.57246L11.5945 0.150352Z" fill="white"/>
</mask>
<g mask="url(#mask1_1021_20)">
<path d="M21.4357 5.57266L11.5713 0.150719C11.4779 0.106171 11.3614 0.0615407 11.2681 0.0391846L0.214523 18.1572C0.307813 18.2687 0.424466 18.358 0.540948 18.425L10.4053 23.847C10.6852 24.0032 11.0117 24.0478 11.3148 23.9586L21.6921 5.79581C21.6221 5.70655 21.5291 5.63956 21.4357 5.57266Z" fill="url(#paint1_linear_1021_20)"/>
</g>
<mask id="mask2_1021_20" style="mask-type:luminance" maskUnits="userSpaceOnUse" x="0" y="-1" width="22" height="25">
<path d="M11.5945 0.150352C11.2214 -0.0504428 10.7782 -0.0504428 10.4051 0.150352L0.587467 5.57246C0.214312 5.77326 0.00445557 6.15257 0.00445557 6.55416V17.4206C0.00445557 17.8222 0.237677 18.2016 0.587467 18.4024L10.4051 23.8244C10.7782 24.0253 11.2214 24.0253 11.5945 23.8244L21.4121 18.4024C21.7853 18.2016 21.9952 17.8222 21.9952 17.4206V6.55416C21.9952 6.15257 21.7619 5.77326 21.4121 5.57246L11.5945 0.150352Z" fill="white"/>
</mask>
<g mask="url(#mask2_1021_20)">
<path d="M21.4589 18.4026C21.7388 18.2464 21.9487 17.9786 22.042 17.6886L11.2216 0.0167749C10.9417 -0.0278553 10.6385 -0.0055813 10.382 0.150583L0.58757 5.55042L11.1517 23.9809C11.2915 23.9586 11.4547 23.914 11.5947 23.847L21.4589 18.4026Z" fill="url(#paint2_linear_1021_20)"/>
</g>
</g>
</g>
<defs>
<linearGradient id="paint0_linear_1021_20" x1="1499.5" y1="419.256" x2="489.702" y2="2077.51" gradientUnits="userSpaceOnUse">
<stop stop-color="#41873F"/>
<stop offset="0.3288" stop-color="#418B3D"/>
<stop offset="0.6352" stop-color="#419637"/>
<stop offset="0.9319" stop-color="#3FA92D"/>
<stop offset="1" stop-color="#3FAE2A"/>
</linearGradient>
<linearGradient id="paint1_linear_1021_20" x1="929.701" y1="1322.16" x2="3569.21" y2="-176.616" gradientUnits="userSpaceOnUse">
<stop offset="0.1376" stop-color="#41873F"/>
<stop offset="0.4032" stop-color="#54A044"/>
<stop offset="0.7136" stop-color="#66B848"/>
<stop offset="0.9081" stop-color="#6CC04A"/>
</linearGradient>
<linearGradient id="paint2_linear_1021_20" x1="-93.5759" y1="1199.15" x2="2178.19" y2="1199.15" gradientUnits="userSpaceOnUse">
<stop offset="0.09192" stop-color="#6CC04A"/>
<stop offset="0.2864" stop-color="#66B848"/>
<stop offset="0.5968" stop-color="#54A044"/>
<stop offset="0.8624" stop-color="#41873F"/>
</linearGradient>
<clipPath id="clip0_1021_20">
<rect width="22" height="24" fill="white"/>
</clipPath>
</defs>
</svg>
