<svg width="22" height="24" viewBox="0 0 22 24" fill="none" xmlns="http://www.w3.org/2000/svg">
<g clip-path="url(#clip0_930_100)">
<path d="M11.094 0.150596C10.737 -0.0501986 10.313 -0.0501986 9.95599 0.150596L0.562291 5.57271C0.20525 5.7735 0.00445557 6.15282 0.00445557 6.5544V17.4208C0.00445557 17.8225 0.227606 18.2018 0.562291 18.4026L9.95599 23.8246C10.313 24.0255 10.737 24.0255 11.094 23.8246L20.4877 18.4026C20.8448 18.2018 21.0456 17.8225 21.0456 17.4208V6.5544C21.0456 6.15282 20.8224 5.7735 20.4877 5.57271L11.094 0.150596Z" fill="url(#paint0_linear_930_100)"/>
<mask id="mask0_930_100" style="mask-type:luminance" maskUnits="userSpaceOnUse" x="0" y="-1" width="22" height="25">
<path d="M11.094 0.150352C10.737 -0.0504428 10.313 -0.0504428 9.95599 0.150352L0.562291 5.57246C0.20525 5.77326 0.00445557 6.15257 0.00445557 6.55416V17.4206C0.00445557 17.8222 0.227606 18.2016 0.562291 18.4024L9.95599 23.8244C10.313 24.0253 10.737 24.0253 11.094 23.8244L20.4877 18.4024C20.8448 18.2016 21.0456 17.8222 21.0456 17.4206V6.55416C21.0456 6.15257 20.8224 5.77326 20.4877 5.57246L11.094 0.150352Z" fill="white"/>
</mask>
<g mask="url(#mask0_930_100)">
<path d="M20.5101 5.57266L11.0716 0.150719C10.9823 0.106171 10.8708 0.0615407 10.7815 0.0391846L0.205261 18.1572C0.294522 18.2687 0.406138 18.358 0.51759 18.425L9.956 23.847C10.2238 24.0032 10.5362 24.0478 10.8262 23.9586L20.7554 5.79581C20.6884 5.70655 20.5993 5.63965 20.51 5.57275" fill="url(#paint1_linear_930_100)"/>
</g>
<mask id="mask1_930_100" style="mask-type:luminance" maskUnits="userSpaceOnUse" x="0" y="-1" width="22" height="25">
<path d="M11.094 0.150352C10.737 -0.0504428 10.313 -0.0504428 9.95599 0.150352L0.562291 5.57246C0.20525 5.77326 0.00445557 6.15257 0.00445557 6.55416V17.4206C0.00445557 17.8222 0.227606 18.2016 0.562291 18.4024L9.95599 23.8244C10.313 24.0253 10.737 24.0253 11.094 23.8244L20.4877 18.4024C20.8448 18.2016 21.0456 17.8222 21.0456 17.4206V6.55416C21.0456 6.15257 20.8224 5.77326 20.4877 5.57246L11.094 0.150352Z" fill="white"/>
</mask>
<g mask="url(#mask1_930_100)">
<path d="M20.5323 18.4026C20.8001 18.2464 21.0009 17.9786 21.0902 17.6886L10.737 0.0167749C10.4692 -0.0278553 10.1791 -0.0055813 9.9337 0.150583L0.562195 5.55042L10.6701 23.9809C10.8039 23.9586 10.9601 23.914 11.094 23.847L20.5323 18.4026Z" fill="url(#paint2_linear_930_100)"/>
</g>
</g>
<defs>
<linearGradient id="paint0_linear_930_100" x1="1434.75" y1="419.256" x2="405.086" y2="2037.12" gradientUnits="userSpaceOnUse">
<stop stop-color="#41873F"/>
<stop offset="0.3288" stop-color="#418B3D"/>
<stop offset="0.6352" stop-color="#419637"/>
<stop offset="0.9319" stop-color="#3FA92D"/>
<stop offset="1" stop-color="#3FAE2A"/>
</linearGradient>
<linearGradient id="paint1_linear_930_100" x1="889.555" y1="1322.16" x2="3468.21" y2="-78.8343" gradientUnits="userSpaceOnUse">
<stop offset="0.1376" stop-color="#41873F"/>
<stop offset="0.4032" stop-color="#54A044"/>
<stop offset="0.7136" stop-color="#66B848"/>
<stop offset="0.9081" stop-color="#6CC04A"/>
</linearGradient>
<linearGradient id="paint2_linear_930_100" x1="-89.5351" y1="1199.15" x2="2084.13" y2="1199.15" gradientUnits="userSpaceOnUse">
<stop offset="0.09192" stop-color="#6CC04A"/>
<stop offset="0.2864" stop-color="#66B848"/>
<stop offset="0.5968" stop-color="#54A044"/>
<stop offset="0.8624" stop-color="#41873F"/>
</linearGradient>
<clipPath id="clip0_930_100">
<rect width="21.05" height="24" fill="white"/>
</clipPath>
</defs>
</svg>
