<svg width="24" height="24" viewBox="0 0 24 24" fill="none" xmlns="http://www.w3.org/2000/svg">
<g clip-path="url(#clip0_930_119)">
<path d="M17.5892 17.271C17.7364 16.0461 17.6923 15.8663 18.6047 16.0648L18.8363 16.0851C19.5379 16.117 20.4557 15.9722 20.995 15.7217C22.1558 15.183 22.8439 14.284 21.6996 14.52C19.0888 15.0587 18.9094 14.1747 18.9094 14.1747C21.6662 10.0843 22.8186 4.8919 21.8237 3.62084C19.1106 0.154151 14.4143 1.79346 14.3357 1.83584L14.3106 1.84053C13.7948 1.73346 13.2175 1.66953 12.5689 1.65903C11.3875 1.63953 10.491 1.96878 9.81095 2.4844C9.81095 2.4844 1.43289 -0.967287 1.8227 6.82521C1.90558 8.4829 4.1987 19.3686 6.93395 16.0806C7.9337 14.8783 8.8997 13.8617 8.8997 13.8617C9.37933 14.1803 9.95383 14.343 10.5561 14.2845L10.6028 14.2448C10.5881 14.394 10.5945 14.5401 10.6213 14.713C9.91689 15.5003 10.1239 15.6385 8.7152 15.9283C7.28983 16.222 8.1272 16.7449 8.67376 16.8816C9.33658 17.0473 10.8698 17.2821 11.9059 15.832L11.8646 15.9973C12.141 16.2186 12.1225 17.5868 12.1615 18.5642C12.2006 19.5418 12.2661 20.454 12.4654 20.992C12.6647 21.5299 12.8998 22.915 14.7512 22.5182C16.2985 22.1875 17.4814 21.7103 17.5892 17.271Z" fill="black"/>
<path d="M14.1483 23.4855C13.3295 23.4855 12.7963 23.1688 12.4725 22.863C11.9837 22.4017 11.7898 21.8075 11.6739 21.4526L11.6238 21.3045C11.3906 20.6748 11.3115 19.7683 11.2646 18.6009C11.2575 18.4256 11.2526 18.245 11.2472 18.0536C11.2432 17.9135 11.2383 17.7378 11.2312 17.5541C10.9362 17.6947 10.6231 17.7937 10.3008 17.8481C9.72353 17.9467 9.10291 17.9148 8.45585 17.753C7.99928 17.6388 7.52491 17.4022 7.25454 17.0368C6.46647 17.727 5.71478 17.6334 5.30528 17.4967C4.58285 17.2558 3.93635 16.5787 3.32866 15.4273C2.89572 14.607 2.47703 13.5382 2.08403 12.2505C1.39966 10.008 0.964847 7.64603 0.926222 6.87053C0.804722 4.44334 1.45816 2.70747 2.86797 1.71165C5.09191 0.140777 8.46147 1.06459 9.68997 1.48403C10.5153 0.98659 11.4864 0.744528 12.5837 0.761965C13.173 0.771528 13.7342 0.823278 14.2554 0.916278C14.7992 0.745278 15.8732 0.49984 17.1026 0.515215C19.3678 0.542215 21.2448 1.42497 22.5305 3.06803C23.4482 4.24028 22.9944 6.70197 22.6425 8.06509C22.1471 9.98247 21.2792 12.0217 20.213 13.797C20.5025 13.799 20.922 13.7643 21.5182 13.6412C22.6946 13.3983 23.0387 14.0291 23.132 14.3115C23.5061 15.4443 21.8801 16.3005 21.3729 16.536C20.723 16.8377 19.6635 17.0214 18.7957 16.9817L18.7578 16.9792L18.5298 16.9592L18.5073 17.1493L18.4856 17.3351C18.4273 19.5849 18.1059 21.0097 17.4446 21.9512C16.7514 22.9382 15.788 23.2147 14.9394 23.3966C14.6499 23.4585 14.3868 23.4855 14.1483 23.4855ZM12.4252 15.2972C12.9538 15.7202 13.0001 16.5161 13.0415 18.0035C13.0468 18.1892 13.0517 18.3648 13.0582 18.5289C13.0781 19.0258 13.1248 20.1892 13.307 20.6808C13.3327 20.7504 13.3558 20.8209 13.3802 20.8957C13.5832 21.5175 13.685 21.8293 14.5631 21.6416C15.3002 21.4835 15.6791 21.3418 15.9757 20.9195C16.4068 20.3057 16.6479 19.0708 16.6922 17.2492L17.589 17.271L16.6983 17.1641L16.7246 16.9417C16.8099 16.2086 16.8714 15.6791 17.3613 15.3288C17.7545 15.048 18.2025 15.0752 18.5593 15.1395C18.1672 14.8432 18.0588 14.4958 18.03 14.3533L17.9552 13.9848L18.1653 13.673C19.376 11.8768 20.3743 9.66915 20.9045 7.61603C21.4494 5.50647 21.2833 4.38615 21.1172 4.17428C18.918 1.36422 15.1044 2.52447 14.7062 2.65609L14.6388 2.69247L14.3013 2.75528L14.1285 2.71947C13.6518 2.62047 13.1223 2.56572 12.5548 2.55653C11.663 2.54153 10.9436 2.75228 10.3537 3.19984L9.94441 3.51015L9.46947 3.31459C8.45472 2.89965 5.47422 2.06547 3.90147 3.1794C3.02847 3.79778 2.63078 5.0094 2.71928 6.78072C2.74853 7.36553 3.14585 9.57934 3.80135 11.7264C4.70716 14.6936 5.53028 15.6793 5.87397 15.7938C5.93397 15.8141 6.0896 15.6932 6.24447 15.5072C6.89025 14.7331 7.55892 13.9783 8.2496 13.244L8.76897 12.6975L9.39691 13.1147C9.65003 13.2828 9.92922 13.3783 10.2159 13.3963L11.7135 12.119L11.4965 14.333C11.4917 14.3827 11.4892 14.4504 11.5087 14.576L11.574 14.9957L11.2908 15.3122L11.2582 15.3489L12.081 15.7286L12.4252 15.2972Z" fill="black"/>
<path d="M21.6996 14.52C19.0886 15.0586 18.9092 14.1746 18.9092 14.1746C21.666 10.0841 22.8184 4.89146 21.8239 3.62077C19.1108 0.15427 14.4141 1.79358 14.3357 1.83615L14.3104 1.84065C13.7946 1.73358 13.2173 1.66983 12.5683 1.65933C11.3869 1.64002 10.4908 1.96908 9.81077 2.48471C9.81077 2.48471 1.43251 -0.966792 1.82214 6.82552C1.90502 8.4834 4.19814 19.3691 6.93339 16.0811C7.93314 14.8788 8.89895 13.8622 8.89895 13.8622C9.37876 14.1808 9.95308 14.3435 10.5551 14.285L10.602 14.2453C10.5874 14.3945 10.5941 14.5406 10.6208 14.7135C9.91614 15.5008 10.1231 15.639 8.71445 15.9288C7.28908 16.2225 8.12645 16.7454 8.6732 16.8821C9.33583 17.0478 10.8692 17.2826 11.9051 15.8325L11.8637 15.9978C12.1399 16.2191 12.3338 17.4363 12.3013 18.5398C12.2689 19.6432 12.247 20.4009 12.4646 20.9926C12.6821 21.5844 12.8989 22.9156 14.7506 22.5189C16.2979 22.1874 17.0996 21.3281 17.2114 19.8948C17.2905 18.8758 17.4696 19.0265 17.481 18.1155L17.6248 17.6842C17.7906 16.3029 17.6511 15.8574 18.6045 16.0646L18.8361 16.0848C19.5377 16.1167 20.4559 15.972 20.995 15.7215C22.1556 15.1831 22.8439 14.2839 21.6996 14.52Z" fill="#336791"/>
<path d="M14.2419 22.9326C12.6984 22.9326 12.2094 21.7102 12.0094 21.2104C11.7165 20.4778 11.6533 17.6349 11.7186 15.3036C11.7195 15.2642 11.7283 15.2255 11.7443 15.1896C11.7603 15.1536 11.7832 15.1212 11.8118 15.0942C11.8404 15.0672 11.874 15.0461 11.9108 15.0322C11.9476 15.0182 11.9867 15.0117 12.0261 15.0129C12.0653 15.014 12.104 15.0228 12.1399 15.0388C12.1757 15.0548 12.2081 15.0778 12.2351 15.1063C12.2621 15.1349 12.2832 15.1685 12.2972 15.2052C12.3112 15.2419 12.3178 15.281 12.3167 15.3202C12.2415 18.0092 12.3482 20.4459 12.5649 20.9882C12.9032 21.8336 13.4162 22.5731 14.8665 22.2624C16.2433 21.9671 16.7589 21.4451 16.9886 20.1137C17.1649 19.092 17.5134 16.1854 17.5564 15.6118C17.5592 15.5726 17.5698 15.5344 17.5875 15.4993C17.6052 15.4642 17.6296 15.4329 17.6594 15.4073C17.6892 15.3816 17.7237 15.3621 17.7611 15.3498C17.7984 15.3376 17.8378 15.3328 17.877 15.3358C17.9561 15.3418 18.0296 15.3789 18.0813 15.439C18.133 15.4991 18.1588 15.5773 18.153 15.6564C18.1082 16.2536 17.7613 19.1546 17.5783 20.2155C17.3072 21.7881 16.6061 22.5013 14.9919 22.8474C14.7176 22.9061 14.4684 22.9324 14.2419 22.9326ZM5.87268 16.9624C5.73776 16.9619 5.6038 16.9398 5.47593 16.8967C4.47337 16.5622 3.51843 14.9295 2.63756 12.0433C1.96706 9.84636 1.54218 7.55324 1.50487 6.80792C1.39443 4.59842 1.96331 3.03524 3.19612 2.16205C5.63493 0.43405 9.73762 2.07955 9.91105 2.15043C9.98453 2.18044 10.0431 2.2384 10.0738 2.31158C10.1045 2.38475 10.1049 2.46714 10.0749 2.54061C10.0449 2.61409 9.98695 2.67263 9.91378 2.70336C9.8406 2.73409 9.75822 2.7345 9.68474 2.70449C9.64518 2.68836 5.71106 1.11224 3.54074 2.65105C2.48662 3.39843 2.00268 4.78705 2.10224 6.77811C2.13356 7.40605 2.53049 9.64405 3.20962 11.8685C3.99599 14.4452 4.89093 16.071 5.66512 16.3292C5.78662 16.3697 6.15637 16.4929 6.68493 15.8572C7.3013 15.1169 7.9408 14.3962 8.60249 13.6961C8.65786 13.6409 8.73264 13.6095 8.81083 13.6088C8.88902 13.608 8.96442 13.6378 9.02087 13.6919C9.07733 13.746 9.11037 13.8201 9.11291 13.8982C9.11546 13.9764 9.08731 14.0524 9.03449 14.1101C9.02549 14.1195 8.12568 15.0602 7.14505 16.2399C6.68062 16.7985 6.23549 16.9624 5.87268 16.9624ZM18.8906 14.4414C18.8364 14.4414 18.7832 14.4265 18.7367 14.3986C18.6902 14.3706 18.6522 14.3305 18.6268 14.2826C18.6013 14.2347 18.5894 14.1808 18.5922 14.1267C18.595 14.0725 18.6125 14.0201 18.6427 13.9751C21.4296 9.8398 22.4077 4.84311 21.57 3.77249C20.5155 2.42511 19.0266 1.72142 17.1442 1.68074C15.7506 1.65074 14.6428 2.00661 14.4617 2.06868L14.4161 2.08724C14.2341 2.14443 14.0944 2.04468 14.0417 1.92805C14.0116 1.86123 14.0071 1.78573 14.0289 1.71578C14.0507 1.64584 14.0973 1.58629 14.16 1.54836C14.1686 1.5433 14.196 1.53168 14.2404 1.51536C14.5481 1.40267 15.6727 1.06518 17.0657 1.08111C19.1484 1.10324 20.8689 1.9063 22.0408 3.40386C22.5952 4.11242 22.5966 5.7448 22.0444 7.88267C21.4815 10.0624 20.4223 12.4048 19.1387 14.3096C19.0813 14.3953 18.9868 14.4414 18.8906 14.4414ZM19.0331 16.3558C18.5572 16.3558 18.1307 16.2887 17.8753 16.1357C17.6128 15.9784 17.5627 15.7646 17.5562 15.6512C17.4846 14.3931 18.1787 14.174 18.5327 14.0741C18.4834 13.9995 18.4132 13.9117 18.3407 13.8212C18.1342 13.5632 17.8515 13.2099 17.6336 12.6816C17.5995 12.5991 17.4926 12.4072 17.3689 12.185C16.6978 10.9817 15.3015 8.47761 16.1985 7.1953C16.6136 6.60186 17.4403 6.36824 18.6583 6.49855C18.3 5.40693 16.5937 1.99218 12.5451 1.9258C11.3274 1.90555 10.3288 2.27999 9.57843 3.03768C7.89843 4.73436 7.95918 7.8043 7.96012 7.83505C7.96115 7.87432 7.95444 7.91342 7.94037 7.9501C7.92629 7.98678 7.90513 8.02032 7.87809 8.04883C7.85105 8.07733 7.81866 8.10022 7.78278 8.11621C7.74689 8.13219 7.7082 8.14095 7.66893 8.14199C7.62966 8.14302 7.59056 8.13631 7.55388 8.12224C7.5172 8.10816 7.48366 8.087 7.45515 8.05996C7.42665 8.03292 7.40376 8.00053 7.38777 7.96465C7.37179 7.92876 7.36303 7.89007 7.36199 7.8508C7.35824 7.71449 7.29562 4.49286 9.15337 2.61655C10.0228 1.73849 11.1673 1.30499 12.555 1.32768C15.1451 1.37024 16.8124 2.68705 17.7547 3.78411C18.7821 4.9798 19.2857 6.29868 19.3271 6.73893C19.3581 7.0663 19.1231 7.13174 19.0757 7.14149L18.9677 7.14393C17.7724 6.95249 17.0055 7.08543 16.6884 7.53843C16.0061 8.51361 17.3271 10.8823 17.8911 11.8939C18.0351 12.1519 18.1389 12.3384 18.1866 12.4535C18.3718 12.9028 18.6135 13.2047 18.8076 13.4473C18.9784 13.6607 19.1263 13.8457 19.1792 14.0629C19.2037 14.106 19.5523 14.6216 21.6206 14.1947C22.1391 14.0878 22.4499 14.1791 22.545 14.4666C22.7319 15.0319 21.6831 15.6913 21.1024 15.9609C20.5821 16.2028 19.7516 16.3558 19.0331 16.3558ZM18.1526 15.6019C18.2182 15.6681 18.5466 15.7822 19.2264 15.753C19.8309 15.7271 20.4684 15.5957 20.8509 15.4181C21.3401 15.1909 21.6667 14.9368 21.8359 14.7634L21.7421 14.7806C20.4197 15.0536 19.4842 15.0172 18.9619 14.6724C18.9267 14.6493 18.8929 14.6242 18.8606 14.5972C18.804 14.6196 18.7517 14.6342 18.7144 14.6447C18.4181 14.7277 18.1117 14.8138 18.1526 15.6019ZM9.60974 17.2734C9.28124 17.2734 8.93549 17.2286 8.58243 17.1403C8.21662 17.0488 7.59993 16.7734 7.6093 16.3209C7.61999 15.8134 8.35818 15.6611 8.63605 15.6039C9.63993 15.3971 9.70537 15.3142 10.0191 14.9158C10.1106 14.7997 10.2244 14.6552 10.3796 14.4819C10.6101 14.2239 10.8619 14.0932 11.1281 14.0932C11.3136 14.0932 11.4656 14.1561 11.5661 14.1979C11.8864 14.3306 12.1536 14.6516 12.2634 15.0354C12.3626 15.3817 12.3152 15.7151 12.1303 15.9741C11.5234 16.824 10.6517 17.2734 9.60974 17.2734ZM8.25562 16.3466C8.3458 16.4164 8.52655 16.5096 8.72774 16.5598C9.03355 16.6363 9.33018 16.6751 9.60993 16.6751C10.4623 16.6751 11.1467 16.3222 11.6437 15.6262C11.7474 15.4811 11.7163 15.2968 11.6886 15.1999C11.6304 14.9968 11.4861 14.8121 11.3374 14.7504C11.2567 14.7171 11.1898 14.6916 11.1283 14.6916C11.0953 14.6916 10.9948 14.6916 10.8257 14.8807C10.709 15.012 10.5968 15.1472 10.4893 15.2861C10.0986 15.7822 9.91949 15.9506 8.75699 16.1901C8.4733 16.2482 8.3278 16.3074 8.25562 16.3466ZM10.5561 14.9666C10.4846 14.9665 10.4156 14.9408 10.3615 14.8943C10.3073 14.8477 10.2716 14.7833 10.2607 14.7127C10.2532 14.6631 10.2482 14.6131 10.2457 14.5629C9.48374 14.5487 8.74855 14.2217 8.19037 13.6393C7.48462 12.903 7.16343 11.8828 7.30931 10.8405C7.46774 9.70855 7.40849 8.70936 7.37662 8.17255C7.3678 8.0233 7.36143 7.91549 7.3618 7.84086C7.36237 7.74618 7.36424 7.49511 8.20349 7.06968C8.50199 6.91836 9.10049 6.65436 9.7543 6.58668C10.8375 6.47474 11.5515 6.95717 11.7652 7.9453C12.3422 10.613 11.811 11.793 11.4231 12.6547C11.3509 12.8152 11.2826 12.9667 11.2281 13.1136L11.1799 13.2429C10.9749 13.7925 10.7977 14.2672 10.8521 14.6218C10.8581 14.6606 10.8563 14.7003 10.847 14.7384C10.8376 14.7766 10.8209 14.8125 10.7976 14.8442C10.7744 14.8759 10.7451 14.9027 10.7115 14.923C10.6779 14.9434 10.6406 14.9569 10.6018 14.9629L10.5561 14.9666ZM7.96199 7.92374L7.97362 8.1373C8.00662 8.69492 8.06812 9.73255 7.90162 10.9235C7.78143 11.7832 8.04393 12.6223 8.62218 13.2253C9.07912 13.7019 9.68043 13.965 10.2984 13.965H10.3112C10.3804 13.6734 10.4953 13.3655 10.6191 13.0339L10.6669 12.9052C10.7286 12.7395 10.8007 12.579 10.8772 12.4091C11.2506 11.5796 11.7154 10.547 11.1801 8.07186C11.0741 7.58155 10.8171 7.29786 10.3946 7.2043C9.52687 7.01267 8.23368 7.66536 7.96199 7.92374ZM9.76762 7.7968C9.75262 7.90255 9.9613 8.18492 10.2336 8.22261C10.5052 8.26067 10.7377 8.0398 10.7526 7.93405C10.7674 7.8283 10.5589 7.71167 10.2866 7.6738C10.0144 7.63592 9.78206 7.69105 9.76762 7.7968ZM10.296 8.32667L10.2197 8.32142C10.0509 8.29799 9.8803 8.19167 9.76349 8.0368C9.72243 7.98242 9.65549 7.87705 9.6688 7.78292C9.68774 7.64492 9.85612 7.56224 10.1188 7.56224C10.1775 7.56224 10.2386 7.56655 10.3001 7.57518C10.4437 7.59505 10.5771 7.63649 10.6755 7.69142C10.8461 7.78667 10.8587 7.89299 10.851 7.94792C10.83 8.10036 10.5876 8.32667 10.296 8.32667ZM9.8668 7.81442C9.87524 7.87967 10.0369 8.09492 10.2472 8.12399L10.2962 8.12736C10.4904 8.12736 10.6356 7.97455 10.6526 7.92449C10.6346 7.89036 10.5097 7.80561 10.2729 7.77261C10.2219 7.76541 10.1705 7.76171 10.119 7.76155C9.96674 7.76155 9.88593 7.79586 9.8668 7.81442ZM18.0427 7.58099C18.0576 7.68674 17.8491 7.96911 17.577 8.00699C17.3051 8.04486 17.0724 7.82418 17.0574 7.71843C17.0432 7.61268 17.2517 7.49586 17.5236 7.45817C17.7954 7.42011 18.0277 7.47542 18.0427 7.58099ZM17.5142 8.06099C17.2524 8.06099 17.0265 7.85736 17.0079 7.72517C16.9864 7.56655 17.2476 7.44599 17.5164 7.40867C17.5757 7.40042 17.6344 7.3963 17.6908 7.3963C17.9229 7.3963 18.0767 7.46436 18.0921 7.57424C18.102 7.6453 18.0474 7.75499 17.9535 7.85399C17.8914 7.91905 17.7611 8.03174 17.5836 8.0563L17.5142 8.06099ZM17.691 7.49605C17.639 7.49605 17.5855 7.49986 17.5305 7.50749C17.2603 7.54518 17.0991 7.65355 17.1069 7.71168C17.1159 7.77561 17.2884 7.96142 17.5144 7.96142L17.5701 7.95749C17.7176 7.93705 17.8284 7.84067 17.8813 7.78517C17.9644 7.69799 17.9974 7.61586 17.9934 7.58793C17.9882 7.5508 17.8884 7.49605 17.691 7.49605ZM18.4344 13.6541C18.3802 13.6541 18.327 13.6394 18.2805 13.6116C18.2341 13.5837 18.196 13.5437 18.1705 13.4959C18.145 13.448 18.133 13.3942 18.1358 13.34C18.1385 13.2859 18.1559 13.2335 18.1862 13.1885C18.8233 12.237 18.7067 11.2667 18.594 10.3282C18.5458 9.92849 18.4963 9.51505 18.5091 9.1183C18.5222 8.71011 18.5741 8.37336 18.6242 8.04768C18.6836 7.6618 18.7399 7.2973 18.7166 6.86455C18.7145 6.82533 18.7201 6.78607 18.7332 6.74902C18.7462 6.71197 18.7665 6.67786 18.7927 6.64862C18.8189 6.61939 18.8507 6.59561 18.8861 6.57864C18.9215 6.56168 18.96 6.55186 18.9992 6.54974C19.0384 6.54762 19.0777 6.55325 19.1147 6.5663C19.1518 6.57936 19.1859 6.59958 19.2151 6.62582C19.2741 6.67881 19.3097 6.75308 19.314 6.8323C19.3406 7.32693 19.2771 7.73942 19.2156 8.13861C19.1681 8.44667 19.119 8.76524 19.1072 9.13743C19.0957 9.4888 19.1406 9.86192 19.188 10.2568C19.308 11.2547 19.4439 12.3857 18.6834 13.5214C18.656 13.5622 18.6189 13.5957 18.5755 13.6188C18.5321 13.642 18.4836 13.6541 18.4344 13.6541Z" fill="white"/>
</g>
<defs>
<clipPath id="clip0_930_119">
<rect width="24" height="24" fill="white"/>
</clipPath>
</defs>
</svg>
