<svg width="100" height="100" viewBox="0 0 100 100" fill="none" xmlns="http://www.w3.org/2000/svg">
<g clip-path="url(#clip0_447_152)">
<path d="M49.7401 0.0657905C45.5564 0.077306 41.3903 0.607389 37.337 1.64392C17.837 6.49392 2.3589 24.1533 0.374525 44.1845C-2.08485 63.1314 7.50265 82.8752 23.8901 92.6564C39.9901 102.731 61.7808 102.328 77.537 91.7314C91.6995 82.5345 100.503 65.7845 99.9839 48.872C99.7433 32.1439 90.3495 15.8814 75.9745 7.28767C68.1464 2.45329 58.937 0.0314155 49.7401 0.0657905ZM49.462 7.12829C70.0651 7.09391 90.2495 23.0283 92.3151 44.3189C96.2558 67.9033 76.6745 91.8783 52.7808 92.5783C30.0589 94.8408 8.0839 75.5689 7.4339 52.7502C5.74327 34.2783 17.9339 15.9345 35.3464 9.82829C39.8358 8.03992 44.6264 7.12868 49.4589 7.14392L49.462 7.12829ZM70.687 20.5752C59.487 29.2627 48.762 38.5252 37.8089 47.4783C42.8214 47.5408 47.8683 47.5408 52.8964 47.5064C58.7714 38.4908 64.812 29.5939 70.687 20.5752ZM47.087 52.4595C41.212 61.4939 35.1589 70.4095 29.2776 79.4439C40.512 70.7689 51.187 61.4439 62.2058 52.5408C57.1654 52.4836 52.1246 52.4575 47.0839 52.4627L47.087 52.4595Z" fill="white"/>
</g>
<defs>
<clipPath id="clip0_447_152">
<rect width="100" height="100" fill="white"/>
</clipPath>
</defs>
</svg>
