<svg width="24" height="24" viewBox="0 0 24 24" fill="none" xmlns="http://www.w3.org/2000/svg">
<g clip-path="url(#clip0_1024_42)">
<path d="M12.0007 4.80035C8.80068 4.80035 6.80137 6.39973 6.00075 9.59979C7.20037 8.00023 8.60081 7.40042 10.2004 7.80035C11.1137 8.02798 11.7664 8.69023 12.4892 9.4241C13.6656 10.6179 15.0272 12 18.0007 12C21.2006 12 23.2001 10.4004 24.0007 7.1996C22.8007 8.79998 21.4008 9.4001 19.8009 8.99998C18.8878 8.77217 18.2359 8.1101 17.5121 7.37623C16.3365 6.18242 14.9752 4.80035 12.0007 4.80035ZM6.00075 12C2.80087 12 0.801373 13.5995 0.000747681 16.8004C1.20062 15.2 2.6005 14.5999 4.20037 15C5.11369 15.2278 5.76637 15.8899 6.48919 16.6237C7.66556 17.8175 9.02718 19.1996 12.0007 19.1996C15.2006 19.1996 17.2001 17.6002 18.0007 14.4002C16.8007 15.9998 15.4008 16.5996 13.8009 16.1996C12.8878 15.972 12.2359 15.3097 11.5121 14.5759C10.3365 13.382 8.97525 12 6.00075 12Z" fill="#38BDF8"/>
</g>
<defs>
<clipPath id="clip0_1024_42">
<rect width="24" height="24" fill="white"/>
</clipPath>
</defs>
</svg>
